%TF.GenerationSoftware,KiCad,Pcbnew,(5.1.9-0-10_14)*%
%TF.CreationDate,2021-04-13T19:55:37+09:00*%
%TF.ProjectId,IKIDS,494b4944-532e-46b6-9963-61645f706362,rev?*%
%TF.SameCoordinates,Original*%
%TF.FileFunction,Other,User*%
%FSLAX46Y46*%
G04 Gerber Fmt 4.6, Leading zero omitted, Abs format (unit mm)*
G04 Created by KiCad (PCBNEW (5.1.9-0-10_14)) date 2021-04-13 19:55:37*
%MOMM*%
%LPD*%
G01*
G04 APERTURE LIST*
%ADD10C,0.050000*%
G04 APERTURE END LIST*
D10*
%TO.C,D12*%
X213875000Y-118237500D02*
X213875000Y-113537500D01*
X213875000Y-113537500D02*
X211575000Y-113537500D01*
X211575000Y-113537500D02*
X211575000Y-118237500D01*
X213875000Y-118237500D02*
X211575000Y-118237500D01*
%TO.C,D11*%
X175775000Y-108712500D02*
X175775000Y-104012500D01*
X175775000Y-104012500D02*
X173475000Y-104012500D01*
X173475000Y-104012500D02*
X173475000Y-108712500D01*
X175775000Y-108712500D02*
X173475000Y-108712500D01*
%TO.C,D10*%
X175775000Y-89662500D02*
X175775000Y-84962500D01*
X175775000Y-84962500D02*
X173475000Y-84962500D01*
X173475000Y-84962500D02*
X173475000Y-89662500D01*
X175775000Y-89662500D02*
X173475000Y-89662500D01*
%TO.C,D9*%
X175775000Y-70612500D02*
X175775000Y-65912500D01*
X175775000Y-65912500D02*
X173475000Y-65912500D01*
X173475000Y-65912500D02*
X173475000Y-70612500D01*
X175775000Y-70612500D02*
X173475000Y-70612500D01*
%TO.C,D8*%
X156725000Y-108712500D02*
X156725000Y-104012500D01*
X156725000Y-104012500D02*
X154425000Y-104012500D01*
X154425000Y-104012500D02*
X154425000Y-108712500D01*
X156725000Y-108712500D02*
X154425000Y-108712500D01*
%TO.C,D7*%
X156725000Y-89662500D02*
X156725000Y-84962500D01*
X156725000Y-84962500D02*
X154425000Y-84962500D01*
X154425000Y-84962500D02*
X154425000Y-89662500D01*
X156725000Y-89662500D02*
X154425000Y-89662500D01*
%TO.C,D6*%
X156725000Y-70612500D02*
X156725000Y-65912500D01*
X156725000Y-65912500D02*
X154425000Y-65912500D01*
X154425000Y-65912500D02*
X154425000Y-70612500D01*
X156725000Y-70612500D02*
X154425000Y-70612500D01*
%TO.C,D5*%
X137675000Y-108712500D02*
X137675000Y-104012500D01*
X137675000Y-104012500D02*
X135375000Y-104012500D01*
X135375000Y-104012500D02*
X135375000Y-108712500D01*
X137675000Y-108712500D02*
X135375000Y-108712500D01*
%TO.C,D4*%
X137675000Y-89806250D02*
X137675000Y-85106250D01*
X137675000Y-85106250D02*
X135375000Y-85106250D01*
X135375000Y-85106250D02*
X135375000Y-89806250D01*
X137675000Y-89806250D02*
X135375000Y-89806250D01*
%TO.C,D3*%
X137675000Y-70612500D02*
X137675000Y-65912500D01*
X137675000Y-65912500D02*
X135375000Y-65912500D01*
X135375000Y-65912500D02*
X135375000Y-70612500D01*
X137675000Y-70612500D02*
X135375000Y-70612500D01*
%TO.C,D2*%
X94812500Y-146812500D02*
X94812500Y-142112500D01*
X94812500Y-142112500D02*
X92512500Y-142112500D01*
X92512500Y-142112500D02*
X92512500Y-146812500D01*
X94812500Y-146812500D02*
X92512500Y-146812500D01*
%TO.C,D1*%
X94812500Y-127762500D02*
X94812500Y-123062500D01*
X94812500Y-123062500D02*
X92512500Y-123062500D01*
X92512500Y-123062500D02*
X92512500Y-127762500D01*
X94812500Y-127762500D02*
X92512500Y-127762500D01*
%TD*%
M02*
