M48
; DRILL file {KiCad (5.1.9-0-10_14)} date Tuesday, April 13, 2021 at 07:55:32 PM
; FORMAT={-:-/ absolute / inch / decimal}
; #@! TF.CreationDate,2021-04-13T19:55:32+09:00
; #@! TF.GenerationSoftware,Kicad,Pcbnew,(5.1.9-0-10_14)
FMAT,2
INCH
T1C0.0157
T2C0.0409
T3C0.0430
T4C0.0579
T5C0.0689
T6C0.1570
%
G90
G05
T1
X3.0625Y-4.8438
X3.0625Y-5.5938
X3.2188Y-4.0938
X4.6875Y-3.0312
X4.6875Y-3.7812
X4.6875Y-4.5312
X4.75Y-2.5938
X4.75Y-3.3438
X4.75Y-4.0938
X5.0175Y-4.6738
X5.0312Y-3.1562
X5.125Y-3.0312
X5.125Y-3.7812
X5.125Y-4.5312
X5.375Y-2.875
X5.375Y-3.0938
X5.375Y-3.5938
X5.375Y-3.8438
X5.375Y-4.3438
X5.375Y-4.5938
X5.5Y-4.0938
X5.5Y-4.6562
X5.5Y-4.6562
X5.5025Y-2.5913
X5.5025Y-3.3413
X5.75Y-3.9062
X5.7812Y-3.125
X5.7812Y-4.7812
X5.875Y-3.0312
X5.875Y-3.7812
X5.875Y-4.5312
X6.125Y-2.8438
X6.125Y-3.0938
X6.125Y-3.5938
X6.125Y-3.8438
X6.125Y-4.3438
X6.125Y-4.5938
X6.25Y-4.5625
X6.2525Y-2.5913
X6.2525Y-3.3413
X6.2525Y-4.0912
X6.5312Y-3.0625
X6.5312Y-3.9062
X6.625Y-3.0312
X6.625Y-3.7812
X6.625Y-4.5312
X6.875Y-2.875
X6.875Y-3.0938
X6.875Y-3.1562
X6.875Y-3.5938
X6.875Y-3.8438
X6.875Y-4.3438
X6.875Y-4.5938
X6.9375Y-3.0312
X6.9688Y-3.125
X6.9688Y-3.125
X7.1562Y-4.2188
X7.25Y-4.6562
X7.3125Y-4.375
X7.3125Y-4.7188
X7.375Y-4.4375
X7.375Y-4.7812
X7.5625Y-3.9062
X7.5625Y-5.7188
X7.5938Y-4.2812
X7.7188Y-3.8438
X7.7188Y-4.9688
X7.7188Y-4.9688
X8.375Y-4.7188
X8.375Y-4.9688
T2
X3.33Y-5.1413
X3.33Y-5.8912
X3.43Y-5.1413
X3.43Y-5.8912
X5.0175Y-2.8912
X5.0175Y-3.6412
X5.0175Y-4.3913
X5.1175Y-2.8912
X5.1175Y-3.6412
X5.1175Y-4.3913
X5.7675Y-2.8912
X5.7675Y-3.6412
X5.7675Y-4.3913
X5.8675Y-2.8912
X5.8675Y-3.6412
X5.8675Y-4.3913
X6.5175Y-2.8912
X6.5175Y-3.6412
X6.5175Y-4.3913
X6.6175Y-2.8912
X6.6175Y-3.6412
X6.6175Y-4.3913
X8.0175Y-4.7663
X8.1175Y-4.7663
T3
X7.1562Y-2.47
X7.1562Y-2.57
X7.1562Y-2.67
X7.1562Y-2.77
X7.1562Y-2.87
X7.1562Y-2.97
X7.1562Y-3.07
X7.1562Y-3.17
X7.1562Y-3.27
X7.1562Y-3.37
X7.1562Y-3.47
X7.1562Y-3.57
X7.2562Y-3.57
X7.3563Y-3.57
X7.4562Y-3.57
X7.5562Y-3.57
X7.6562Y-3.57
X7.7473Y-3.57
X7.7562Y-2.47
X7.7562Y-2.57
X7.7562Y-2.67
X7.7562Y-2.77
X7.7562Y-2.87
X7.7562Y-2.97
X7.7562Y-3.07
X7.7562Y-3.17
X7.7562Y-3.27
X7.7562Y-3.37
X7.7562Y-3.47
T4
X3.23Y-4.8412
X3.23Y-5.5912
X3.48Y-4.7412
X3.48Y-5.4912
X4.9175Y-2.5913
X4.9175Y-3.3413
X4.9175Y-4.0912
X5.1675Y-2.4912
X5.1675Y-3.2412
X5.1675Y-3.9912
X5.6675Y-2.5913
X5.6675Y-3.3413
X5.6675Y-4.0912
X5.9175Y-2.4912
X5.9175Y-3.2412
X5.9175Y-3.9912
X6.4175Y-2.5913
X6.4175Y-3.3413
X6.4175Y-4.0912
X6.6675Y-2.4912
X6.6675Y-3.2412
X6.6675Y-3.9912
X7.9175Y-4.4662
X8.1675Y-4.3662
T5
X3.18Y-4.9413
X3.18Y-5.6913
X3.58Y-4.9413
X3.58Y-5.6913
X4.8675Y-2.6913
X4.8675Y-3.4413
X4.8675Y-4.1913
X5.2675Y-2.6913
X5.2675Y-3.4413
X5.2675Y-4.1913
X5.6175Y-2.6913
X5.6175Y-3.4413
X5.6175Y-4.1913
X6.0175Y-2.6913
X6.0175Y-3.4413
X6.0175Y-4.1913
X6.3675Y-2.6913
X6.3675Y-3.4413
X6.3675Y-4.1913
X6.7675Y-2.6913
X6.7675Y-3.4413
X6.7675Y-4.1913
X7.8675Y-4.5663
X8.2675Y-4.5663
T6
X3.38Y-4.9413
X3.38Y-5.6913
X5.0675Y-2.6913
X5.0675Y-3.4413
X5.0675Y-4.1913
X5.8175Y-2.6913
X5.8175Y-3.4413
X5.8175Y-4.1913
X6.5675Y-2.6913
X6.5675Y-3.4413
X6.5675Y-4.1913
X8.0675Y-4.5663
T0
M30
