%TF.GenerationSoftware,KiCad,Pcbnew,(5.1.9-0-10_14)*%
%TF.CreationDate,2021-04-13T19:55:37+09:00*%
%TF.ProjectId,IKIDS,494b4944-532e-46b6-9963-61645f706362,rev?*%
%TF.SameCoordinates,Original*%
%TF.FileFunction,Other,Fab,Bot*%
%FSLAX46Y46*%
G04 Gerber Fmt 4.6, Leading zero omitted, Abs format (unit mm)*
G04 Created by KiCad (PCBNEW (5.1.9-0-10_14)) date 2021-04-13 19:55:37*
%MOMM*%
%LPD*%
G01*
G04 APERTURE LIST*
%ADD10C,0.100000*%
%ADD11C,0.150000*%
G04 APERTURE END LIST*
D10*
%TO.C,D12*%
X212725000Y-115637500D02*
X212725000Y-115137500D01*
X212325000Y-115637500D02*
X212725000Y-116237500D01*
X213125000Y-115637500D02*
X212325000Y-115637500D01*
X212725000Y-116237500D02*
X213125000Y-115637500D01*
X212725000Y-116237500D02*
X212175000Y-116237500D01*
X212725000Y-116237500D02*
X213275000Y-116237500D01*
X212725000Y-116637500D02*
X212725000Y-116237500D01*
X211825000Y-117287500D02*
X213625000Y-117287500D01*
X211825000Y-114487500D02*
X211825000Y-117287500D01*
X213625000Y-114487500D02*
X211825000Y-114487500D01*
X213625000Y-117287500D02*
X213625000Y-114487500D01*
%TO.C,D11*%
X174625000Y-106112500D02*
X174625000Y-105612500D01*
X174225000Y-106112500D02*
X174625000Y-106712500D01*
X175025000Y-106112500D02*
X174225000Y-106112500D01*
X174625000Y-106712500D02*
X175025000Y-106112500D01*
X174625000Y-106712500D02*
X174075000Y-106712500D01*
X174625000Y-106712500D02*
X175175000Y-106712500D01*
X174625000Y-107112500D02*
X174625000Y-106712500D01*
X173725000Y-107762500D02*
X175525000Y-107762500D01*
X173725000Y-104962500D02*
X173725000Y-107762500D01*
X175525000Y-104962500D02*
X173725000Y-104962500D01*
X175525000Y-107762500D02*
X175525000Y-104962500D01*
%TO.C,D10*%
X174625000Y-87062500D02*
X174625000Y-86562500D01*
X174225000Y-87062500D02*
X174625000Y-87662500D01*
X175025000Y-87062500D02*
X174225000Y-87062500D01*
X174625000Y-87662500D02*
X175025000Y-87062500D01*
X174625000Y-87662500D02*
X174075000Y-87662500D01*
X174625000Y-87662500D02*
X175175000Y-87662500D01*
X174625000Y-88062500D02*
X174625000Y-87662500D01*
X173725000Y-88712500D02*
X175525000Y-88712500D01*
X173725000Y-85912500D02*
X173725000Y-88712500D01*
X175525000Y-85912500D02*
X173725000Y-85912500D01*
X175525000Y-88712500D02*
X175525000Y-85912500D01*
%TO.C,D9*%
X174625000Y-68012500D02*
X174625000Y-67512500D01*
X174225000Y-68012500D02*
X174625000Y-68612500D01*
X175025000Y-68012500D02*
X174225000Y-68012500D01*
X174625000Y-68612500D02*
X175025000Y-68012500D01*
X174625000Y-68612500D02*
X174075000Y-68612500D01*
X174625000Y-68612500D02*
X175175000Y-68612500D01*
X174625000Y-69012500D02*
X174625000Y-68612500D01*
X173725000Y-69662500D02*
X175525000Y-69662500D01*
X173725000Y-66862500D02*
X173725000Y-69662500D01*
X175525000Y-66862500D02*
X173725000Y-66862500D01*
X175525000Y-69662500D02*
X175525000Y-66862500D01*
%TO.C,D8*%
X155575000Y-106112500D02*
X155575000Y-105612500D01*
X155175000Y-106112500D02*
X155575000Y-106712500D01*
X155975000Y-106112500D02*
X155175000Y-106112500D01*
X155575000Y-106712500D02*
X155975000Y-106112500D01*
X155575000Y-106712500D02*
X155025000Y-106712500D01*
X155575000Y-106712500D02*
X156125000Y-106712500D01*
X155575000Y-107112500D02*
X155575000Y-106712500D01*
X154675000Y-107762500D02*
X156475000Y-107762500D01*
X154675000Y-104962500D02*
X154675000Y-107762500D01*
X156475000Y-104962500D02*
X154675000Y-104962500D01*
X156475000Y-107762500D02*
X156475000Y-104962500D01*
%TO.C,D7*%
X155575000Y-87062500D02*
X155575000Y-86562500D01*
X155175000Y-87062500D02*
X155575000Y-87662500D01*
X155975000Y-87062500D02*
X155175000Y-87062500D01*
X155575000Y-87662500D02*
X155975000Y-87062500D01*
X155575000Y-87662500D02*
X155025000Y-87662500D01*
X155575000Y-87662500D02*
X156125000Y-87662500D01*
X155575000Y-88062500D02*
X155575000Y-87662500D01*
X154675000Y-88712500D02*
X156475000Y-88712500D01*
X154675000Y-85912500D02*
X154675000Y-88712500D01*
X156475000Y-85912500D02*
X154675000Y-85912500D01*
X156475000Y-88712500D02*
X156475000Y-85912500D01*
%TO.C,D6*%
X155575000Y-68012500D02*
X155575000Y-67512500D01*
X155175000Y-68012500D02*
X155575000Y-68612500D01*
X155975000Y-68012500D02*
X155175000Y-68012500D01*
X155575000Y-68612500D02*
X155975000Y-68012500D01*
X155575000Y-68612500D02*
X155025000Y-68612500D01*
X155575000Y-68612500D02*
X156125000Y-68612500D01*
X155575000Y-69012500D02*
X155575000Y-68612500D01*
X154675000Y-69662500D02*
X156475000Y-69662500D01*
X154675000Y-66862500D02*
X154675000Y-69662500D01*
X156475000Y-66862500D02*
X154675000Y-66862500D01*
X156475000Y-69662500D02*
X156475000Y-66862500D01*
%TO.C,D5*%
X136525000Y-106112500D02*
X136525000Y-105612500D01*
X136125000Y-106112500D02*
X136525000Y-106712500D01*
X136925000Y-106112500D02*
X136125000Y-106112500D01*
X136525000Y-106712500D02*
X136925000Y-106112500D01*
X136525000Y-106712500D02*
X135975000Y-106712500D01*
X136525000Y-106712500D02*
X137075000Y-106712500D01*
X136525000Y-107112500D02*
X136525000Y-106712500D01*
X135625000Y-107762500D02*
X137425000Y-107762500D01*
X135625000Y-104962500D02*
X135625000Y-107762500D01*
X137425000Y-104962500D02*
X135625000Y-104962500D01*
X137425000Y-107762500D02*
X137425000Y-104962500D01*
%TO.C,D4*%
X136525000Y-87206250D02*
X136525000Y-86706250D01*
X136125000Y-87206250D02*
X136525000Y-87806250D01*
X136925000Y-87206250D02*
X136125000Y-87206250D01*
X136525000Y-87806250D02*
X136925000Y-87206250D01*
X136525000Y-87806250D02*
X135975000Y-87806250D01*
X136525000Y-87806250D02*
X137075000Y-87806250D01*
X136525000Y-88206250D02*
X136525000Y-87806250D01*
X135625000Y-88856250D02*
X137425000Y-88856250D01*
X135625000Y-86056250D02*
X135625000Y-88856250D01*
X137425000Y-86056250D02*
X135625000Y-86056250D01*
X137425000Y-88856250D02*
X137425000Y-86056250D01*
%TO.C,D3*%
X136525000Y-68012500D02*
X136525000Y-67512500D01*
X136125000Y-68012500D02*
X136525000Y-68612500D01*
X136925000Y-68012500D02*
X136125000Y-68012500D01*
X136525000Y-68612500D02*
X136925000Y-68012500D01*
X136525000Y-68612500D02*
X135975000Y-68612500D01*
X136525000Y-68612500D02*
X137075000Y-68612500D01*
X136525000Y-69012500D02*
X136525000Y-68612500D01*
X135625000Y-69662500D02*
X137425000Y-69662500D01*
X135625000Y-66862500D02*
X135625000Y-69662500D01*
X137425000Y-66862500D02*
X135625000Y-66862500D01*
X137425000Y-69662500D02*
X137425000Y-66862500D01*
%TO.C,D2*%
X93662500Y-144212500D02*
X93662500Y-143712500D01*
X93262500Y-144212500D02*
X93662500Y-144812500D01*
X94062500Y-144212500D02*
X93262500Y-144212500D01*
X93662500Y-144812500D02*
X94062500Y-144212500D01*
X93662500Y-144812500D02*
X93112500Y-144812500D01*
X93662500Y-144812500D02*
X94212500Y-144812500D01*
X93662500Y-145212500D02*
X93662500Y-144812500D01*
X92762500Y-145862500D02*
X94562500Y-145862500D01*
X92762500Y-143062500D02*
X92762500Y-145862500D01*
X94562500Y-143062500D02*
X92762500Y-143062500D01*
X94562500Y-145862500D02*
X94562500Y-143062500D01*
%TO.C,D1*%
X93662500Y-125162500D02*
X93662500Y-124662500D01*
X93262500Y-125162500D02*
X93662500Y-125762500D01*
X94062500Y-125162500D02*
X93262500Y-125162500D01*
X93662500Y-125762500D02*
X94062500Y-125162500D01*
X93662500Y-125762500D02*
X93112500Y-125762500D01*
X93662500Y-125762500D02*
X94212500Y-125762500D01*
X93662500Y-126162500D02*
X93662500Y-125762500D01*
X92762500Y-126812500D02*
X94562500Y-126812500D01*
X92762500Y-124012500D02*
X92762500Y-126812500D01*
X94562500Y-124012500D02*
X92762500Y-124012500D01*
X94562500Y-126812500D02*
X94562500Y-124012500D01*
%TD*%
%TO.C,D12*%
D11*
X211077380Y-113125595D02*
X210077380Y-113125595D01*
X210077380Y-113363690D01*
X210125000Y-113506547D01*
X210220238Y-113601785D01*
X210315476Y-113649404D01*
X210505952Y-113697023D01*
X210648809Y-113697023D01*
X210839285Y-113649404D01*
X210934523Y-113601785D01*
X211029761Y-113506547D01*
X211077380Y-113363690D01*
X211077380Y-113125595D01*
X211172619Y-113887500D02*
X211172619Y-114649404D01*
X211029761Y-114839880D02*
X211077380Y-114982738D01*
X211077380Y-115220833D01*
X211029761Y-115316071D01*
X210982142Y-115363690D01*
X210886904Y-115411309D01*
X210791666Y-115411309D01*
X210696428Y-115363690D01*
X210648809Y-115316071D01*
X210601190Y-115220833D01*
X210553571Y-115030357D01*
X210505952Y-114935119D01*
X210458333Y-114887500D01*
X210363095Y-114839880D01*
X210267857Y-114839880D01*
X210172619Y-114887500D01*
X210125000Y-114935119D01*
X210077380Y-115030357D01*
X210077380Y-115268452D01*
X210125000Y-115411309D01*
X211077380Y-115839880D02*
X210410714Y-115839880D01*
X210505952Y-115839880D02*
X210458333Y-115887500D01*
X210410714Y-115982738D01*
X210410714Y-116125595D01*
X210458333Y-116220833D01*
X210553571Y-116268452D01*
X211077380Y-116268452D01*
X210553571Y-116268452D02*
X210458333Y-116316071D01*
X210410714Y-116411309D01*
X210410714Y-116554166D01*
X210458333Y-116649404D01*
X210553571Y-116697023D01*
X211077380Y-116697023D01*
X211077380Y-117601785D02*
X210553571Y-117601785D01*
X210458333Y-117554166D01*
X210410714Y-117458928D01*
X210410714Y-117268452D01*
X210458333Y-117173214D01*
X211029761Y-117601785D02*
X211077380Y-117506547D01*
X211077380Y-117268452D01*
X211029761Y-117173214D01*
X210934523Y-117125595D01*
X210839285Y-117125595D01*
X210744047Y-117173214D01*
X210696428Y-117268452D01*
X210696428Y-117506547D01*
X210648809Y-117601785D01*
X211077380Y-118220833D02*
X211029761Y-118125595D01*
X210934523Y-118077976D01*
X210077380Y-118077976D01*
X211077380Y-118744642D02*
X211029761Y-118649404D01*
X210934523Y-118601785D01*
X210077380Y-118601785D01*
X215177380Y-114673214D02*
X214177380Y-114673214D01*
X214177380Y-114911309D01*
X214225000Y-115054166D01*
X214320238Y-115149404D01*
X214415476Y-115197023D01*
X214605952Y-115244642D01*
X214748809Y-115244642D01*
X214939285Y-115197023D01*
X215034523Y-115149404D01*
X215129761Y-115054166D01*
X215177380Y-114911309D01*
X215177380Y-114673214D01*
X215177380Y-116197023D02*
X215177380Y-115625595D01*
X215177380Y-115911309D02*
X214177380Y-115911309D01*
X214320238Y-115816071D01*
X214415476Y-115720833D01*
X214463095Y-115625595D01*
X214272619Y-116577976D02*
X214225000Y-116625595D01*
X214177380Y-116720833D01*
X214177380Y-116958928D01*
X214225000Y-117054166D01*
X214272619Y-117101785D01*
X214367857Y-117149404D01*
X214463095Y-117149404D01*
X214605952Y-117101785D01*
X215177380Y-116530357D01*
X215177380Y-117149404D01*
%TO.C,D11*%
X172977380Y-103600595D02*
X171977380Y-103600595D01*
X171977380Y-103838690D01*
X172025000Y-103981547D01*
X172120238Y-104076785D01*
X172215476Y-104124404D01*
X172405952Y-104172023D01*
X172548809Y-104172023D01*
X172739285Y-104124404D01*
X172834523Y-104076785D01*
X172929761Y-103981547D01*
X172977380Y-103838690D01*
X172977380Y-103600595D01*
X173072619Y-104362500D02*
X173072619Y-105124404D01*
X172929761Y-105314880D02*
X172977380Y-105457738D01*
X172977380Y-105695833D01*
X172929761Y-105791071D01*
X172882142Y-105838690D01*
X172786904Y-105886309D01*
X172691666Y-105886309D01*
X172596428Y-105838690D01*
X172548809Y-105791071D01*
X172501190Y-105695833D01*
X172453571Y-105505357D01*
X172405952Y-105410119D01*
X172358333Y-105362500D01*
X172263095Y-105314880D01*
X172167857Y-105314880D01*
X172072619Y-105362500D01*
X172025000Y-105410119D01*
X171977380Y-105505357D01*
X171977380Y-105743452D01*
X172025000Y-105886309D01*
X172977380Y-106314880D02*
X172310714Y-106314880D01*
X172405952Y-106314880D02*
X172358333Y-106362500D01*
X172310714Y-106457738D01*
X172310714Y-106600595D01*
X172358333Y-106695833D01*
X172453571Y-106743452D01*
X172977380Y-106743452D01*
X172453571Y-106743452D02*
X172358333Y-106791071D01*
X172310714Y-106886309D01*
X172310714Y-107029166D01*
X172358333Y-107124404D01*
X172453571Y-107172023D01*
X172977380Y-107172023D01*
X172977380Y-108076785D02*
X172453571Y-108076785D01*
X172358333Y-108029166D01*
X172310714Y-107933928D01*
X172310714Y-107743452D01*
X172358333Y-107648214D01*
X172929761Y-108076785D02*
X172977380Y-107981547D01*
X172977380Y-107743452D01*
X172929761Y-107648214D01*
X172834523Y-107600595D01*
X172739285Y-107600595D01*
X172644047Y-107648214D01*
X172596428Y-107743452D01*
X172596428Y-107981547D01*
X172548809Y-108076785D01*
X172977380Y-108695833D02*
X172929761Y-108600595D01*
X172834523Y-108552976D01*
X171977380Y-108552976D01*
X172977380Y-109219642D02*
X172929761Y-109124404D01*
X172834523Y-109076785D01*
X171977380Y-109076785D01*
X177077380Y-105148214D02*
X176077380Y-105148214D01*
X176077380Y-105386309D01*
X176125000Y-105529166D01*
X176220238Y-105624404D01*
X176315476Y-105672023D01*
X176505952Y-105719642D01*
X176648809Y-105719642D01*
X176839285Y-105672023D01*
X176934523Y-105624404D01*
X177029761Y-105529166D01*
X177077380Y-105386309D01*
X177077380Y-105148214D01*
X177077380Y-106672023D02*
X177077380Y-106100595D01*
X177077380Y-106386309D02*
X176077380Y-106386309D01*
X176220238Y-106291071D01*
X176315476Y-106195833D01*
X176363095Y-106100595D01*
X177077380Y-107624404D02*
X177077380Y-107052976D01*
X177077380Y-107338690D02*
X176077380Y-107338690D01*
X176220238Y-107243452D01*
X176315476Y-107148214D01*
X176363095Y-107052976D01*
%TO.C,D10*%
X172977380Y-84550595D02*
X171977380Y-84550595D01*
X171977380Y-84788690D01*
X172025000Y-84931547D01*
X172120238Y-85026785D01*
X172215476Y-85074404D01*
X172405952Y-85122023D01*
X172548809Y-85122023D01*
X172739285Y-85074404D01*
X172834523Y-85026785D01*
X172929761Y-84931547D01*
X172977380Y-84788690D01*
X172977380Y-84550595D01*
X173072619Y-85312500D02*
X173072619Y-86074404D01*
X172929761Y-86264880D02*
X172977380Y-86407738D01*
X172977380Y-86645833D01*
X172929761Y-86741071D01*
X172882142Y-86788690D01*
X172786904Y-86836309D01*
X172691666Y-86836309D01*
X172596428Y-86788690D01*
X172548809Y-86741071D01*
X172501190Y-86645833D01*
X172453571Y-86455357D01*
X172405952Y-86360119D01*
X172358333Y-86312500D01*
X172263095Y-86264880D01*
X172167857Y-86264880D01*
X172072619Y-86312500D01*
X172025000Y-86360119D01*
X171977380Y-86455357D01*
X171977380Y-86693452D01*
X172025000Y-86836309D01*
X172977380Y-87264880D02*
X172310714Y-87264880D01*
X172405952Y-87264880D02*
X172358333Y-87312500D01*
X172310714Y-87407738D01*
X172310714Y-87550595D01*
X172358333Y-87645833D01*
X172453571Y-87693452D01*
X172977380Y-87693452D01*
X172453571Y-87693452D02*
X172358333Y-87741071D01*
X172310714Y-87836309D01*
X172310714Y-87979166D01*
X172358333Y-88074404D01*
X172453571Y-88122023D01*
X172977380Y-88122023D01*
X172977380Y-89026785D02*
X172453571Y-89026785D01*
X172358333Y-88979166D01*
X172310714Y-88883928D01*
X172310714Y-88693452D01*
X172358333Y-88598214D01*
X172929761Y-89026785D02*
X172977380Y-88931547D01*
X172977380Y-88693452D01*
X172929761Y-88598214D01*
X172834523Y-88550595D01*
X172739285Y-88550595D01*
X172644047Y-88598214D01*
X172596428Y-88693452D01*
X172596428Y-88931547D01*
X172548809Y-89026785D01*
X172977380Y-89645833D02*
X172929761Y-89550595D01*
X172834523Y-89502976D01*
X171977380Y-89502976D01*
X172977380Y-90169642D02*
X172929761Y-90074404D01*
X172834523Y-90026785D01*
X171977380Y-90026785D01*
X177077380Y-86098214D02*
X176077380Y-86098214D01*
X176077380Y-86336309D01*
X176125000Y-86479166D01*
X176220238Y-86574404D01*
X176315476Y-86622023D01*
X176505952Y-86669642D01*
X176648809Y-86669642D01*
X176839285Y-86622023D01*
X176934523Y-86574404D01*
X177029761Y-86479166D01*
X177077380Y-86336309D01*
X177077380Y-86098214D01*
X177077380Y-87622023D02*
X177077380Y-87050595D01*
X177077380Y-87336309D02*
X176077380Y-87336309D01*
X176220238Y-87241071D01*
X176315476Y-87145833D01*
X176363095Y-87050595D01*
X176077380Y-88241071D02*
X176077380Y-88336309D01*
X176125000Y-88431547D01*
X176172619Y-88479166D01*
X176267857Y-88526785D01*
X176458333Y-88574404D01*
X176696428Y-88574404D01*
X176886904Y-88526785D01*
X176982142Y-88479166D01*
X177029761Y-88431547D01*
X177077380Y-88336309D01*
X177077380Y-88241071D01*
X177029761Y-88145833D01*
X176982142Y-88098214D01*
X176886904Y-88050595D01*
X176696428Y-88002976D01*
X176458333Y-88002976D01*
X176267857Y-88050595D01*
X176172619Y-88098214D01*
X176125000Y-88145833D01*
X176077380Y-88241071D01*
%TO.C,D9*%
X172977380Y-65500595D02*
X171977380Y-65500595D01*
X171977380Y-65738690D01*
X172025000Y-65881547D01*
X172120238Y-65976785D01*
X172215476Y-66024404D01*
X172405952Y-66072023D01*
X172548809Y-66072023D01*
X172739285Y-66024404D01*
X172834523Y-65976785D01*
X172929761Y-65881547D01*
X172977380Y-65738690D01*
X172977380Y-65500595D01*
X173072619Y-66262500D02*
X173072619Y-67024404D01*
X172929761Y-67214880D02*
X172977380Y-67357738D01*
X172977380Y-67595833D01*
X172929761Y-67691071D01*
X172882142Y-67738690D01*
X172786904Y-67786309D01*
X172691666Y-67786309D01*
X172596428Y-67738690D01*
X172548809Y-67691071D01*
X172501190Y-67595833D01*
X172453571Y-67405357D01*
X172405952Y-67310119D01*
X172358333Y-67262500D01*
X172263095Y-67214880D01*
X172167857Y-67214880D01*
X172072619Y-67262500D01*
X172025000Y-67310119D01*
X171977380Y-67405357D01*
X171977380Y-67643452D01*
X172025000Y-67786309D01*
X172977380Y-68214880D02*
X172310714Y-68214880D01*
X172405952Y-68214880D02*
X172358333Y-68262500D01*
X172310714Y-68357738D01*
X172310714Y-68500595D01*
X172358333Y-68595833D01*
X172453571Y-68643452D01*
X172977380Y-68643452D01*
X172453571Y-68643452D02*
X172358333Y-68691071D01*
X172310714Y-68786309D01*
X172310714Y-68929166D01*
X172358333Y-69024404D01*
X172453571Y-69072023D01*
X172977380Y-69072023D01*
X172977380Y-69976785D02*
X172453571Y-69976785D01*
X172358333Y-69929166D01*
X172310714Y-69833928D01*
X172310714Y-69643452D01*
X172358333Y-69548214D01*
X172929761Y-69976785D02*
X172977380Y-69881547D01*
X172977380Y-69643452D01*
X172929761Y-69548214D01*
X172834523Y-69500595D01*
X172739285Y-69500595D01*
X172644047Y-69548214D01*
X172596428Y-69643452D01*
X172596428Y-69881547D01*
X172548809Y-69976785D01*
X172977380Y-70595833D02*
X172929761Y-70500595D01*
X172834523Y-70452976D01*
X171977380Y-70452976D01*
X172977380Y-71119642D02*
X172929761Y-71024404D01*
X172834523Y-70976785D01*
X171977380Y-70976785D01*
X177077380Y-67524404D02*
X176077380Y-67524404D01*
X176077380Y-67762500D01*
X176125000Y-67905357D01*
X176220238Y-68000595D01*
X176315476Y-68048214D01*
X176505952Y-68095833D01*
X176648809Y-68095833D01*
X176839285Y-68048214D01*
X176934523Y-68000595D01*
X177029761Y-67905357D01*
X177077380Y-67762500D01*
X177077380Y-67524404D01*
X177077380Y-68572023D02*
X177077380Y-68762500D01*
X177029761Y-68857738D01*
X176982142Y-68905357D01*
X176839285Y-69000595D01*
X176648809Y-69048214D01*
X176267857Y-69048214D01*
X176172619Y-69000595D01*
X176125000Y-68952976D01*
X176077380Y-68857738D01*
X176077380Y-68667261D01*
X176125000Y-68572023D01*
X176172619Y-68524404D01*
X176267857Y-68476785D01*
X176505952Y-68476785D01*
X176601190Y-68524404D01*
X176648809Y-68572023D01*
X176696428Y-68667261D01*
X176696428Y-68857738D01*
X176648809Y-68952976D01*
X176601190Y-69000595D01*
X176505952Y-69048214D01*
%TO.C,D8*%
X153927380Y-103600595D02*
X152927380Y-103600595D01*
X152927380Y-103838690D01*
X152975000Y-103981547D01*
X153070238Y-104076785D01*
X153165476Y-104124404D01*
X153355952Y-104172023D01*
X153498809Y-104172023D01*
X153689285Y-104124404D01*
X153784523Y-104076785D01*
X153879761Y-103981547D01*
X153927380Y-103838690D01*
X153927380Y-103600595D01*
X154022619Y-104362500D02*
X154022619Y-105124404D01*
X153879761Y-105314880D02*
X153927380Y-105457738D01*
X153927380Y-105695833D01*
X153879761Y-105791071D01*
X153832142Y-105838690D01*
X153736904Y-105886309D01*
X153641666Y-105886309D01*
X153546428Y-105838690D01*
X153498809Y-105791071D01*
X153451190Y-105695833D01*
X153403571Y-105505357D01*
X153355952Y-105410119D01*
X153308333Y-105362500D01*
X153213095Y-105314880D01*
X153117857Y-105314880D01*
X153022619Y-105362500D01*
X152975000Y-105410119D01*
X152927380Y-105505357D01*
X152927380Y-105743452D01*
X152975000Y-105886309D01*
X153927380Y-106314880D02*
X153260714Y-106314880D01*
X153355952Y-106314880D02*
X153308333Y-106362500D01*
X153260714Y-106457738D01*
X153260714Y-106600595D01*
X153308333Y-106695833D01*
X153403571Y-106743452D01*
X153927380Y-106743452D01*
X153403571Y-106743452D02*
X153308333Y-106791071D01*
X153260714Y-106886309D01*
X153260714Y-107029166D01*
X153308333Y-107124404D01*
X153403571Y-107172023D01*
X153927380Y-107172023D01*
X153927380Y-108076785D02*
X153403571Y-108076785D01*
X153308333Y-108029166D01*
X153260714Y-107933928D01*
X153260714Y-107743452D01*
X153308333Y-107648214D01*
X153879761Y-108076785D02*
X153927380Y-107981547D01*
X153927380Y-107743452D01*
X153879761Y-107648214D01*
X153784523Y-107600595D01*
X153689285Y-107600595D01*
X153594047Y-107648214D01*
X153546428Y-107743452D01*
X153546428Y-107981547D01*
X153498809Y-108076785D01*
X153927380Y-108695833D02*
X153879761Y-108600595D01*
X153784523Y-108552976D01*
X152927380Y-108552976D01*
X153927380Y-109219642D02*
X153879761Y-109124404D01*
X153784523Y-109076785D01*
X152927380Y-109076785D01*
X158027380Y-105624404D02*
X157027380Y-105624404D01*
X157027380Y-105862500D01*
X157075000Y-106005357D01*
X157170238Y-106100595D01*
X157265476Y-106148214D01*
X157455952Y-106195833D01*
X157598809Y-106195833D01*
X157789285Y-106148214D01*
X157884523Y-106100595D01*
X157979761Y-106005357D01*
X158027380Y-105862500D01*
X158027380Y-105624404D01*
X157455952Y-106767261D02*
X157408333Y-106672023D01*
X157360714Y-106624404D01*
X157265476Y-106576785D01*
X157217857Y-106576785D01*
X157122619Y-106624404D01*
X157075000Y-106672023D01*
X157027380Y-106767261D01*
X157027380Y-106957738D01*
X157075000Y-107052976D01*
X157122619Y-107100595D01*
X157217857Y-107148214D01*
X157265476Y-107148214D01*
X157360714Y-107100595D01*
X157408333Y-107052976D01*
X157455952Y-106957738D01*
X157455952Y-106767261D01*
X157503571Y-106672023D01*
X157551190Y-106624404D01*
X157646428Y-106576785D01*
X157836904Y-106576785D01*
X157932142Y-106624404D01*
X157979761Y-106672023D01*
X158027380Y-106767261D01*
X158027380Y-106957738D01*
X157979761Y-107052976D01*
X157932142Y-107100595D01*
X157836904Y-107148214D01*
X157646428Y-107148214D01*
X157551190Y-107100595D01*
X157503571Y-107052976D01*
X157455952Y-106957738D01*
%TO.C,D7*%
X153927380Y-84550595D02*
X152927380Y-84550595D01*
X152927380Y-84788690D01*
X152975000Y-84931547D01*
X153070238Y-85026785D01*
X153165476Y-85074404D01*
X153355952Y-85122023D01*
X153498809Y-85122023D01*
X153689285Y-85074404D01*
X153784523Y-85026785D01*
X153879761Y-84931547D01*
X153927380Y-84788690D01*
X153927380Y-84550595D01*
X154022619Y-85312500D02*
X154022619Y-86074404D01*
X153879761Y-86264880D02*
X153927380Y-86407738D01*
X153927380Y-86645833D01*
X153879761Y-86741071D01*
X153832142Y-86788690D01*
X153736904Y-86836309D01*
X153641666Y-86836309D01*
X153546428Y-86788690D01*
X153498809Y-86741071D01*
X153451190Y-86645833D01*
X153403571Y-86455357D01*
X153355952Y-86360119D01*
X153308333Y-86312500D01*
X153213095Y-86264880D01*
X153117857Y-86264880D01*
X153022619Y-86312500D01*
X152975000Y-86360119D01*
X152927380Y-86455357D01*
X152927380Y-86693452D01*
X152975000Y-86836309D01*
X153927380Y-87264880D02*
X153260714Y-87264880D01*
X153355952Y-87264880D02*
X153308333Y-87312500D01*
X153260714Y-87407738D01*
X153260714Y-87550595D01*
X153308333Y-87645833D01*
X153403571Y-87693452D01*
X153927380Y-87693452D01*
X153403571Y-87693452D02*
X153308333Y-87741071D01*
X153260714Y-87836309D01*
X153260714Y-87979166D01*
X153308333Y-88074404D01*
X153403571Y-88122023D01*
X153927380Y-88122023D01*
X153927380Y-89026785D02*
X153403571Y-89026785D01*
X153308333Y-88979166D01*
X153260714Y-88883928D01*
X153260714Y-88693452D01*
X153308333Y-88598214D01*
X153879761Y-89026785D02*
X153927380Y-88931547D01*
X153927380Y-88693452D01*
X153879761Y-88598214D01*
X153784523Y-88550595D01*
X153689285Y-88550595D01*
X153594047Y-88598214D01*
X153546428Y-88693452D01*
X153546428Y-88931547D01*
X153498809Y-89026785D01*
X153927380Y-89645833D02*
X153879761Y-89550595D01*
X153784523Y-89502976D01*
X152927380Y-89502976D01*
X153927380Y-90169642D02*
X153879761Y-90074404D01*
X153784523Y-90026785D01*
X152927380Y-90026785D01*
X158027380Y-86574404D02*
X157027380Y-86574404D01*
X157027380Y-86812500D01*
X157075000Y-86955357D01*
X157170238Y-87050595D01*
X157265476Y-87098214D01*
X157455952Y-87145833D01*
X157598809Y-87145833D01*
X157789285Y-87098214D01*
X157884523Y-87050595D01*
X157979761Y-86955357D01*
X158027380Y-86812500D01*
X158027380Y-86574404D01*
X157027380Y-87479166D02*
X157027380Y-88145833D01*
X158027380Y-87717261D01*
%TO.C,D6*%
X153927380Y-65500595D02*
X152927380Y-65500595D01*
X152927380Y-65738690D01*
X152975000Y-65881547D01*
X153070238Y-65976785D01*
X153165476Y-66024404D01*
X153355952Y-66072023D01*
X153498809Y-66072023D01*
X153689285Y-66024404D01*
X153784523Y-65976785D01*
X153879761Y-65881547D01*
X153927380Y-65738690D01*
X153927380Y-65500595D01*
X154022619Y-66262500D02*
X154022619Y-67024404D01*
X153879761Y-67214880D02*
X153927380Y-67357738D01*
X153927380Y-67595833D01*
X153879761Y-67691071D01*
X153832142Y-67738690D01*
X153736904Y-67786309D01*
X153641666Y-67786309D01*
X153546428Y-67738690D01*
X153498809Y-67691071D01*
X153451190Y-67595833D01*
X153403571Y-67405357D01*
X153355952Y-67310119D01*
X153308333Y-67262500D01*
X153213095Y-67214880D01*
X153117857Y-67214880D01*
X153022619Y-67262500D01*
X152975000Y-67310119D01*
X152927380Y-67405357D01*
X152927380Y-67643452D01*
X152975000Y-67786309D01*
X153927380Y-68214880D02*
X153260714Y-68214880D01*
X153355952Y-68214880D02*
X153308333Y-68262500D01*
X153260714Y-68357738D01*
X153260714Y-68500595D01*
X153308333Y-68595833D01*
X153403571Y-68643452D01*
X153927380Y-68643452D01*
X153403571Y-68643452D02*
X153308333Y-68691071D01*
X153260714Y-68786309D01*
X153260714Y-68929166D01*
X153308333Y-69024404D01*
X153403571Y-69072023D01*
X153927380Y-69072023D01*
X153927380Y-69976785D02*
X153403571Y-69976785D01*
X153308333Y-69929166D01*
X153260714Y-69833928D01*
X153260714Y-69643452D01*
X153308333Y-69548214D01*
X153879761Y-69976785D02*
X153927380Y-69881547D01*
X153927380Y-69643452D01*
X153879761Y-69548214D01*
X153784523Y-69500595D01*
X153689285Y-69500595D01*
X153594047Y-69548214D01*
X153546428Y-69643452D01*
X153546428Y-69881547D01*
X153498809Y-69976785D01*
X153927380Y-70595833D02*
X153879761Y-70500595D01*
X153784523Y-70452976D01*
X152927380Y-70452976D01*
X153927380Y-71119642D02*
X153879761Y-71024404D01*
X153784523Y-70976785D01*
X152927380Y-70976785D01*
X158027380Y-67524404D02*
X157027380Y-67524404D01*
X157027380Y-67762500D01*
X157075000Y-67905357D01*
X157170238Y-68000595D01*
X157265476Y-68048214D01*
X157455952Y-68095833D01*
X157598809Y-68095833D01*
X157789285Y-68048214D01*
X157884523Y-68000595D01*
X157979761Y-67905357D01*
X158027380Y-67762500D01*
X158027380Y-67524404D01*
X157027380Y-68952976D02*
X157027380Y-68762500D01*
X157075000Y-68667261D01*
X157122619Y-68619642D01*
X157265476Y-68524404D01*
X157455952Y-68476785D01*
X157836904Y-68476785D01*
X157932142Y-68524404D01*
X157979761Y-68572023D01*
X158027380Y-68667261D01*
X158027380Y-68857738D01*
X157979761Y-68952976D01*
X157932142Y-69000595D01*
X157836904Y-69048214D01*
X157598809Y-69048214D01*
X157503571Y-69000595D01*
X157455952Y-68952976D01*
X157408333Y-68857738D01*
X157408333Y-68667261D01*
X157455952Y-68572023D01*
X157503571Y-68524404D01*
X157598809Y-68476785D01*
%TO.C,D5*%
X134877380Y-103600595D02*
X133877380Y-103600595D01*
X133877380Y-103838690D01*
X133925000Y-103981547D01*
X134020238Y-104076785D01*
X134115476Y-104124404D01*
X134305952Y-104172023D01*
X134448809Y-104172023D01*
X134639285Y-104124404D01*
X134734523Y-104076785D01*
X134829761Y-103981547D01*
X134877380Y-103838690D01*
X134877380Y-103600595D01*
X134972619Y-104362500D02*
X134972619Y-105124404D01*
X134829761Y-105314880D02*
X134877380Y-105457738D01*
X134877380Y-105695833D01*
X134829761Y-105791071D01*
X134782142Y-105838690D01*
X134686904Y-105886309D01*
X134591666Y-105886309D01*
X134496428Y-105838690D01*
X134448809Y-105791071D01*
X134401190Y-105695833D01*
X134353571Y-105505357D01*
X134305952Y-105410119D01*
X134258333Y-105362500D01*
X134163095Y-105314880D01*
X134067857Y-105314880D01*
X133972619Y-105362500D01*
X133925000Y-105410119D01*
X133877380Y-105505357D01*
X133877380Y-105743452D01*
X133925000Y-105886309D01*
X134877380Y-106314880D02*
X134210714Y-106314880D01*
X134305952Y-106314880D02*
X134258333Y-106362500D01*
X134210714Y-106457738D01*
X134210714Y-106600595D01*
X134258333Y-106695833D01*
X134353571Y-106743452D01*
X134877380Y-106743452D01*
X134353571Y-106743452D02*
X134258333Y-106791071D01*
X134210714Y-106886309D01*
X134210714Y-107029166D01*
X134258333Y-107124404D01*
X134353571Y-107172023D01*
X134877380Y-107172023D01*
X134877380Y-108076785D02*
X134353571Y-108076785D01*
X134258333Y-108029166D01*
X134210714Y-107933928D01*
X134210714Y-107743452D01*
X134258333Y-107648214D01*
X134829761Y-108076785D02*
X134877380Y-107981547D01*
X134877380Y-107743452D01*
X134829761Y-107648214D01*
X134734523Y-107600595D01*
X134639285Y-107600595D01*
X134544047Y-107648214D01*
X134496428Y-107743452D01*
X134496428Y-107981547D01*
X134448809Y-108076785D01*
X134877380Y-108695833D02*
X134829761Y-108600595D01*
X134734523Y-108552976D01*
X133877380Y-108552976D01*
X134877380Y-109219642D02*
X134829761Y-109124404D01*
X134734523Y-109076785D01*
X133877380Y-109076785D01*
X138977380Y-105624404D02*
X137977380Y-105624404D01*
X137977380Y-105862500D01*
X138025000Y-106005357D01*
X138120238Y-106100595D01*
X138215476Y-106148214D01*
X138405952Y-106195833D01*
X138548809Y-106195833D01*
X138739285Y-106148214D01*
X138834523Y-106100595D01*
X138929761Y-106005357D01*
X138977380Y-105862500D01*
X138977380Y-105624404D01*
X137977380Y-107100595D02*
X137977380Y-106624404D01*
X138453571Y-106576785D01*
X138405952Y-106624404D01*
X138358333Y-106719642D01*
X138358333Y-106957738D01*
X138405952Y-107052976D01*
X138453571Y-107100595D01*
X138548809Y-107148214D01*
X138786904Y-107148214D01*
X138882142Y-107100595D01*
X138929761Y-107052976D01*
X138977380Y-106957738D01*
X138977380Y-106719642D01*
X138929761Y-106624404D01*
X138882142Y-106576785D01*
%TO.C,D4*%
X134877380Y-84694345D02*
X133877380Y-84694345D01*
X133877380Y-84932440D01*
X133925000Y-85075297D01*
X134020238Y-85170535D01*
X134115476Y-85218154D01*
X134305952Y-85265773D01*
X134448809Y-85265773D01*
X134639285Y-85218154D01*
X134734523Y-85170535D01*
X134829761Y-85075297D01*
X134877380Y-84932440D01*
X134877380Y-84694345D01*
X134972619Y-85456250D02*
X134972619Y-86218154D01*
X134829761Y-86408630D02*
X134877380Y-86551488D01*
X134877380Y-86789583D01*
X134829761Y-86884821D01*
X134782142Y-86932440D01*
X134686904Y-86980059D01*
X134591666Y-86980059D01*
X134496428Y-86932440D01*
X134448809Y-86884821D01*
X134401190Y-86789583D01*
X134353571Y-86599107D01*
X134305952Y-86503869D01*
X134258333Y-86456250D01*
X134163095Y-86408630D01*
X134067857Y-86408630D01*
X133972619Y-86456250D01*
X133925000Y-86503869D01*
X133877380Y-86599107D01*
X133877380Y-86837202D01*
X133925000Y-86980059D01*
X134877380Y-87408630D02*
X134210714Y-87408630D01*
X134305952Y-87408630D02*
X134258333Y-87456250D01*
X134210714Y-87551488D01*
X134210714Y-87694345D01*
X134258333Y-87789583D01*
X134353571Y-87837202D01*
X134877380Y-87837202D01*
X134353571Y-87837202D02*
X134258333Y-87884821D01*
X134210714Y-87980059D01*
X134210714Y-88122916D01*
X134258333Y-88218154D01*
X134353571Y-88265773D01*
X134877380Y-88265773D01*
X134877380Y-89170535D02*
X134353571Y-89170535D01*
X134258333Y-89122916D01*
X134210714Y-89027678D01*
X134210714Y-88837202D01*
X134258333Y-88741964D01*
X134829761Y-89170535D02*
X134877380Y-89075297D01*
X134877380Y-88837202D01*
X134829761Y-88741964D01*
X134734523Y-88694345D01*
X134639285Y-88694345D01*
X134544047Y-88741964D01*
X134496428Y-88837202D01*
X134496428Y-89075297D01*
X134448809Y-89170535D01*
X134877380Y-89789583D02*
X134829761Y-89694345D01*
X134734523Y-89646726D01*
X133877380Y-89646726D01*
X134877380Y-90313392D02*
X134829761Y-90218154D01*
X134734523Y-90170535D01*
X133877380Y-90170535D01*
X138977380Y-86718154D02*
X137977380Y-86718154D01*
X137977380Y-86956250D01*
X138025000Y-87099107D01*
X138120238Y-87194345D01*
X138215476Y-87241964D01*
X138405952Y-87289583D01*
X138548809Y-87289583D01*
X138739285Y-87241964D01*
X138834523Y-87194345D01*
X138929761Y-87099107D01*
X138977380Y-86956250D01*
X138977380Y-86718154D01*
X138310714Y-88146726D02*
X138977380Y-88146726D01*
X137929761Y-87908630D02*
X138644047Y-87670535D01*
X138644047Y-88289583D01*
%TO.C,D3*%
X134877380Y-65500595D02*
X133877380Y-65500595D01*
X133877380Y-65738690D01*
X133925000Y-65881547D01*
X134020238Y-65976785D01*
X134115476Y-66024404D01*
X134305952Y-66072023D01*
X134448809Y-66072023D01*
X134639285Y-66024404D01*
X134734523Y-65976785D01*
X134829761Y-65881547D01*
X134877380Y-65738690D01*
X134877380Y-65500595D01*
X134972619Y-66262500D02*
X134972619Y-67024404D01*
X134829761Y-67214880D02*
X134877380Y-67357738D01*
X134877380Y-67595833D01*
X134829761Y-67691071D01*
X134782142Y-67738690D01*
X134686904Y-67786309D01*
X134591666Y-67786309D01*
X134496428Y-67738690D01*
X134448809Y-67691071D01*
X134401190Y-67595833D01*
X134353571Y-67405357D01*
X134305952Y-67310119D01*
X134258333Y-67262500D01*
X134163095Y-67214880D01*
X134067857Y-67214880D01*
X133972619Y-67262500D01*
X133925000Y-67310119D01*
X133877380Y-67405357D01*
X133877380Y-67643452D01*
X133925000Y-67786309D01*
X134877380Y-68214880D02*
X134210714Y-68214880D01*
X134305952Y-68214880D02*
X134258333Y-68262500D01*
X134210714Y-68357738D01*
X134210714Y-68500595D01*
X134258333Y-68595833D01*
X134353571Y-68643452D01*
X134877380Y-68643452D01*
X134353571Y-68643452D02*
X134258333Y-68691071D01*
X134210714Y-68786309D01*
X134210714Y-68929166D01*
X134258333Y-69024404D01*
X134353571Y-69072023D01*
X134877380Y-69072023D01*
X134877380Y-69976785D02*
X134353571Y-69976785D01*
X134258333Y-69929166D01*
X134210714Y-69833928D01*
X134210714Y-69643452D01*
X134258333Y-69548214D01*
X134829761Y-69976785D02*
X134877380Y-69881547D01*
X134877380Y-69643452D01*
X134829761Y-69548214D01*
X134734523Y-69500595D01*
X134639285Y-69500595D01*
X134544047Y-69548214D01*
X134496428Y-69643452D01*
X134496428Y-69881547D01*
X134448809Y-69976785D01*
X134877380Y-70595833D02*
X134829761Y-70500595D01*
X134734523Y-70452976D01*
X133877380Y-70452976D01*
X134877380Y-71119642D02*
X134829761Y-71024404D01*
X134734523Y-70976785D01*
X133877380Y-70976785D01*
X138977380Y-67524404D02*
X137977380Y-67524404D01*
X137977380Y-67762500D01*
X138025000Y-67905357D01*
X138120238Y-68000595D01*
X138215476Y-68048214D01*
X138405952Y-68095833D01*
X138548809Y-68095833D01*
X138739285Y-68048214D01*
X138834523Y-68000595D01*
X138929761Y-67905357D01*
X138977380Y-67762500D01*
X138977380Y-67524404D01*
X137977380Y-68429166D02*
X137977380Y-69048214D01*
X138358333Y-68714880D01*
X138358333Y-68857738D01*
X138405952Y-68952976D01*
X138453571Y-69000595D01*
X138548809Y-69048214D01*
X138786904Y-69048214D01*
X138882142Y-69000595D01*
X138929761Y-68952976D01*
X138977380Y-68857738D01*
X138977380Y-68572023D01*
X138929761Y-68476785D01*
X138882142Y-68429166D01*
%TO.C,D2*%
X92014880Y-141700595D02*
X91014880Y-141700595D01*
X91014880Y-141938690D01*
X91062500Y-142081547D01*
X91157738Y-142176785D01*
X91252976Y-142224404D01*
X91443452Y-142272023D01*
X91586309Y-142272023D01*
X91776785Y-142224404D01*
X91872023Y-142176785D01*
X91967261Y-142081547D01*
X92014880Y-141938690D01*
X92014880Y-141700595D01*
X92110119Y-142462500D02*
X92110119Y-143224404D01*
X91967261Y-143414880D02*
X92014880Y-143557738D01*
X92014880Y-143795833D01*
X91967261Y-143891071D01*
X91919642Y-143938690D01*
X91824404Y-143986309D01*
X91729166Y-143986309D01*
X91633928Y-143938690D01*
X91586309Y-143891071D01*
X91538690Y-143795833D01*
X91491071Y-143605357D01*
X91443452Y-143510119D01*
X91395833Y-143462500D01*
X91300595Y-143414880D01*
X91205357Y-143414880D01*
X91110119Y-143462500D01*
X91062500Y-143510119D01*
X91014880Y-143605357D01*
X91014880Y-143843452D01*
X91062500Y-143986309D01*
X92014880Y-144414880D02*
X91348214Y-144414880D01*
X91443452Y-144414880D02*
X91395833Y-144462500D01*
X91348214Y-144557738D01*
X91348214Y-144700595D01*
X91395833Y-144795833D01*
X91491071Y-144843452D01*
X92014880Y-144843452D01*
X91491071Y-144843452D02*
X91395833Y-144891071D01*
X91348214Y-144986309D01*
X91348214Y-145129166D01*
X91395833Y-145224404D01*
X91491071Y-145272023D01*
X92014880Y-145272023D01*
X92014880Y-146176785D02*
X91491071Y-146176785D01*
X91395833Y-146129166D01*
X91348214Y-146033928D01*
X91348214Y-145843452D01*
X91395833Y-145748214D01*
X91967261Y-146176785D02*
X92014880Y-146081547D01*
X92014880Y-145843452D01*
X91967261Y-145748214D01*
X91872023Y-145700595D01*
X91776785Y-145700595D01*
X91681547Y-145748214D01*
X91633928Y-145843452D01*
X91633928Y-146081547D01*
X91586309Y-146176785D01*
X92014880Y-146795833D02*
X91967261Y-146700595D01*
X91872023Y-146652976D01*
X91014880Y-146652976D01*
X92014880Y-147319642D02*
X91967261Y-147224404D01*
X91872023Y-147176785D01*
X91014880Y-147176785D01*
X96114880Y-143724404D02*
X95114880Y-143724404D01*
X95114880Y-143962500D01*
X95162500Y-144105357D01*
X95257738Y-144200595D01*
X95352976Y-144248214D01*
X95543452Y-144295833D01*
X95686309Y-144295833D01*
X95876785Y-144248214D01*
X95972023Y-144200595D01*
X96067261Y-144105357D01*
X96114880Y-143962500D01*
X96114880Y-143724404D01*
X95210119Y-144676785D02*
X95162500Y-144724404D01*
X95114880Y-144819642D01*
X95114880Y-145057738D01*
X95162500Y-145152976D01*
X95210119Y-145200595D01*
X95305357Y-145248214D01*
X95400595Y-145248214D01*
X95543452Y-145200595D01*
X96114880Y-144629166D01*
X96114880Y-145248214D01*
%TO.C,D1*%
X92014880Y-122650595D02*
X91014880Y-122650595D01*
X91014880Y-122888690D01*
X91062500Y-123031547D01*
X91157738Y-123126785D01*
X91252976Y-123174404D01*
X91443452Y-123222023D01*
X91586309Y-123222023D01*
X91776785Y-123174404D01*
X91872023Y-123126785D01*
X91967261Y-123031547D01*
X92014880Y-122888690D01*
X92014880Y-122650595D01*
X92110119Y-123412500D02*
X92110119Y-124174404D01*
X91967261Y-124364880D02*
X92014880Y-124507738D01*
X92014880Y-124745833D01*
X91967261Y-124841071D01*
X91919642Y-124888690D01*
X91824404Y-124936309D01*
X91729166Y-124936309D01*
X91633928Y-124888690D01*
X91586309Y-124841071D01*
X91538690Y-124745833D01*
X91491071Y-124555357D01*
X91443452Y-124460119D01*
X91395833Y-124412500D01*
X91300595Y-124364880D01*
X91205357Y-124364880D01*
X91110119Y-124412500D01*
X91062500Y-124460119D01*
X91014880Y-124555357D01*
X91014880Y-124793452D01*
X91062500Y-124936309D01*
X92014880Y-125364880D02*
X91348214Y-125364880D01*
X91443452Y-125364880D02*
X91395833Y-125412500D01*
X91348214Y-125507738D01*
X91348214Y-125650595D01*
X91395833Y-125745833D01*
X91491071Y-125793452D01*
X92014880Y-125793452D01*
X91491071Y-125793452D02*
X91395833Y-125841071D01*
X91348214Y-125936309D01*
X91348214Y-126079166D01*
X91395833Y-126174404D01*
X91491071Y-126222023D01*
X92014880Y-126222023D01*
X92014880Y-127126785D02*
X91491071Y-127126785D01*
X91395833Y-127079166D01*
X91348214Y-126983928D01*
X91348214Y-126793452D01*
X91395833Y-126698214D01*
X91967261Y-127126785D02*
X92014880Y-127031547D01*
X92014880Y-126793452D01*
X91967261Y-126698214D01*
X91872023Y-126650595D01*
X91776785Y-126650595D01*
X91681547Y-126698214D01*
X91633928Y-126793452D01*
X91633928Y-127031547D01*
X91586309Y-127126785D01*
X92014880Y-127745833D02*
X91967261Y-127650595D01*
X91872023Y-127602976D01*
X91014880Y-127602976D01*
X92014880Y-128269642D02*
X91967261Y-128174404D01*
X91872023Y-128126785D01*
X91014880Y-128126785D01*
X96114880Y-124674404D02*
X95114880Y-124674404D01*
X95114880Y-124912500D01*
X95162500Y-125055357D01*
X95257738Y-125150595D01*
X95352976Y-125198214D01*
X95543452Y-125245833D01*
X95686309Y-125245833D01*
X95876785Y-125198214D01*
X95972023Y-125150595D01*
X96067261Y-125055357D01*
X96114880Y-124912500D01*
X96114880Y-124674404D01*
X96114880Y-126198214D02*
X96114880Y-125626785D01*
X96114880Y-125912500D02*
X95114880Y-125912500D01*
X95257738Y-125817261D01*
X95352976Y-125722023D01*
X95400595Y-125626785D01*
%TD*%
M02*
