%TF.GenerationSoftware,KiCad,Pcbnew,(5.1.9-0-10_14)*%
%TF.CreationDate,2021-04-17T16:13:15+09:00*%
%TF.ProjectId,IKIDS,494b4944-532e-46b6-9963-61645f706362,rev?*%
%TF.SameCoordinates,Original*%
%TF.FileFunction,Copper,L1,Top*%
%TF.FilePolarity,Positive*%
%FSLAX46Y46*%
G04 Gerber Fmt 4.6, Leading zero omitted, Abs format (unit mm)*
G04 Created by KiCad (PCBNEW (5.1.9-0-10_14)) date 2021-04-17 16:13:15*
%MOMM*%
%LPD*%
G01*
G04 APERTURE LIST*
%TA.AperFunction,ComponentPad*%
%ADD10R,1.905000X1.905000*%
%TD*%
%TA.AperFunction,ComponentPad*%
%ADD11C,1.905000*%
%TD*%
%TA.AperFunction,ComponentPad*%
%ADD12C,2.250000*%
%TD*%
%TA.AperFunction,ComponentPad*%
%ADD13C,1.752600*%
%TD*%
%TA.AperFunction,ComponentPad*%
%ADD14R,1.752600X1.752600*%
%TD*%
%TA.AperFunction,ViaPad*%
%ADD15C,0.800000*%
%TD*%
%TA.AperFunction,Conductor*%
%ADD16C,0.250000*%
%TD*%
G04 APERTURE END LIST*
D10*
%TO.P,MX2,4*%
%TO.N,Net-(MX2-Pad4)*%
X87122000Y-149637750D03*
D11*
%TO.P,MX2,3*%
%TO.N,Net-(MX2-Pad3)*%
X84582000Y-149637750D03*
D12*
%TO.P,MX2,1*%
%TO.N,col1*%
X82042000Y-142017750D03*
%TO.P,MX2,2*%
%TO.N,Net-(D2-Pad2)*%
X88392000Y-139477750D03*
%TD*%
D10*
%TO.P,MX6,4*%
%TO.N,gnd*%
X149034500Y-73437750D03*
D11*
%TO.P,MX6,3*%
%TO.N,led2*%
X146494500Y-73437750D03*
D12*
%TO.P,MX6,1*%
%TO.N,col2*%
X143954500Y-65817750D03*
%TO.P,MX6,2*%
%TO.N,Net-(D6-Pad2)*%
X150304500Y-63277750D03*
%TD*%
D10*
%TO.P,MX11,4*%
%TO.N,gnd*%
X168084500Y-111537750D03*
D11*
%TO.P,MX11,3*%
%TO.N,led9*%
X165544500Y-111537750D03*
D12*
%TO.P,MX11,1*%
%TO.N,col3*%
X163004500Y-103917750D03*
%TO.P,MX11,2*%
%TO.N,Net-(D11-Pad2)*%
X169354500Y-101377750D03*
%TD*%
D10*
%TO.P,MX4,4*%
%TO.N,gnd*%
X129984500Y-92487750D03*
D11*
%TO.P,MX4,3*%
%TO.N,led4*%
X127444500Y-92487750D03*
D12*
%TO.P,MX4,1*%
%TO.N,col1*%
X124904500Y-84867750D03*
%TO.P,MX4,2*%
%TO.N,Net-(D4-Pad2)*%
X131254500Y-82327750D03*
%TD*%
D10*
%TO.P,MX1,4*%
%TO.N,Net-(MX1-Pad4)*%
X87122000Y-130587750D03*
D11*
%TO.P,MX1,3*%
%TO.N,Net-(MX1-Pad3)*%
X84582000Y-130587750D03*
D12*
%TO.P,MX1,1*%
%TO.N,col1*%
X82042000Y-122967750D03*
%TO.P,MX1,2*%
%TO.N,Net-(D1-Pad2)*%
X88392000Y-120427750D03*
%TD*%
D13*
%TO.P,U1,25*%
%TO.N,col3*%
X194468750Y-90678000D03*
%TO.P,U1,26*%
%TO.N,led6*%
X191928750Y-90678000D03*
%TO.P,U1,27*%
%TO.N,led5*%
X189388750Y-90678000D03*
%TO.P,U1,28*%
%TO.N,led4*%
X186848750Y-90678000D03*
%TO.P,U1,29*%
%TO.N,col2*%
X184308750Y-90678000D03*
%TO.P,U1,24*%
%TO.N,col1*%
X181768750Y-62738000D03*
%TO.P,U1,12*%
%TO.N,row4*%
X196780150Y-90678000D03*
%TO.P,U1,23*%
%TO.N,gnd*%
X181768750Y-65278000D03*
%TO.P,U1,22*%
%TO.N,Net-(U1-Pad22)*%
X181768750Y-67818000D03*
%TO.P,U1,21*%
%TO.N,Net-(U1-Pad21)*%
X181768750Y-70358000D03*
%TO.P,U1,20*%
%TO.N,Net-(U1-Pad20)*%
X181768750Y-72898000D03*
%TO.P,U1,19*%
%TO.N,Net-(U1-Pad19)*%
X181768750Y-75438000D03*
%TO.P,U1,18*%
%TO.N,led3*%
X181768750Y-77978000D03*
%TO.P,U1,17*%
%TO.N,row1*%
X181768750Y-80518000D03*
%TO.P,U1,16*%
%TO.N,led2*%
X181768750Y-83058000D03*
%TO.P,U1,15*%
%TO.N,led1*%
X181768750Y-85598000D03*
%TO.P,U1,14*%
%TO.N,row2*%
X181768750Y-88138000D03*
%TO.P,U1,13*%
%TO.N,row3*%
X181768750Y-90678000D03*
%TO.P,U1,11*%
%TO.N,led9*%
X197008750Y-88138000D03*
%TO.P,U1,10*%
%TO.N,led7*%
X197008750Y-85598000D03*
%TO.P,U1,9*%
%TO.N,led8*%
X197008750Y-83058000D03*
%TO.P,U1,8*%
%TO.N,row5*%
X197008750Y-80518000D03*
%TO.P,U1,7*%
%TO.N,Net-(U1-Pad7)*%
X197008750Y-77978000D03*
%TO.P,U1,6*%
%TO.N,Net-(U1-Pad6)*%
X197008750Y-75438000D03*
%TO.P,U1,5*%
%TO.N,Net-(U1-Pad5)*%
X197008750Y-72898000D03*
%TO.P,U1,4*%
%TO.N,Net-(U1-Pad4)*%
X197008750Y-70358000D03*
%TO.P,U1,3*%
%TO.N,Net-(U1-Pad3)*%
X197008750Y-67818000D03*
%TO.P,U1,2*%
%TO.N,Net-(U1-Pad2)*%
X197008750Y-65278000D03*
D14*
%TO.P,U1,1*%
%TO.N,Net-(U1-Pad1)*%
X197008750Y-62738000D03*
%TD*%
D10*
%TO.P,MX12,4*%
%TO.N,Net-(MX12-Pad4)*%
X206184500Y-121062750D03*
D11*
%TO.P,MX12,3*%
%TO.N,Net-(MX12-Pad3)*%
X203644500Y-121062750D03*
D12*
%TO.P,MX12,1*%
%TO.N,col3*%
X201104500Y-113442750D03*
%TO.P,MX12,2*%
%TO.N,Net-(D12-Pad2)*%
X207454500Y-110902750D03*
%TD*%
D10*
%TO.P,MX10,4*%
%TO.N,gnd*%
X168084500Y-92487750D03*
D11*
%TO.P,MX10,3*%
%TO.N,led6*%
X165544500Y-92487750D03*
D12*
%TO.P,MX10,1*%
%TO.N,col3*%
X163004500Y-84867750D03*
%TO.P,MX10,2*%
%TO.N,Net-(D10-Pad2)*%
X169354500Y-82327750D03*
%TD*%
D10*
%TO.P,MX9,4*%
%TO.N,gnd*%
X168084500Y-73437750D03*
D11*
%TO.P,MX9,3*%
%TO.N,led3*%
X165544500Y-73437750D03*
D12*
%TO.P,MX9,1*%
%TO.N,col3*%
X163004500Y-65817750D03*
%TO.P,MX9,2*%
%TO.N,Net-(D9-Pad2)*%
X169354500Y-63277750D03*
%TD*%
D10*
%TO.P,MX8,4*%
%TO.N,gnd*%
X149034500Y-111537750D03*
D11*
%TO.P,MX8,3*%
%TO.N,led8*%
X146494500Y-111537750D03*
D12*
%TO.P,MX8,1*%
%TO.N,col2*%
X143954500Y-103917750D03*
%TO.P,MX8,2*%
%TO.N,Net-(D8-Pad2)*%
X150304500Y-101377750D03*
%TD*%
D10*
%TO.P,MX7,4*%
%TO.N,gnd*%
X149034500Y-92487750D03*
D11*
%TO.P,MX7,3*%
%TO.N,led5*%
X146494500Y-92487750D03*
D12*
%TO.P,MX7,1*%
%TO.N,col2*%
X143954500Y-84867750D03*
%TO.P,MX7,2*%
%TO.N,Net-(D7-Pad2)*%
X150304500Y-82327750D03*
%TD*%
%TO.P,MX5,2*%
%TO.N,Net-(D5-Pad2)*%
X131254500Y-101377750D03*
%TO.P,MX5,1*%
%TO.N,col1*%
X124904500Y-103917750D03*
D11*
%TO.P,MX5,3*%
%TO.N,led7*%
X127444500Y-111537750D03*
D10*
%TO.P,MX5,4*%
%TO.N,gnd*%
X129984500Y-111537750D03*
%TD*%
%TO.P,MX3,4*%
%TO.N,gnd*%
X129984500Y-73437750D03*
D11*
%TO.P,MX3,3*%
%TO.N,led1*%
X127444500Y-73437750D03*
D12*
%TO.P,MX3,1*%
%TO.N,col1*%
X124904500Y-65817750D03*
%TO.P,MX3,2*%
%TO.N,Net-(D3-Pad2)*%
X131254500Y-63277750D03*
%TD*%
D15*
%TO.N,row4*%
X212725000Y-126206250D03*
X212725000Y-119856250D03*
X196056250Y-126206250D03*
X196056250Y-126206250D03*
X196056250Y-97631250D03*
%TO.N,row5*%
X192087500Y-145256250D03*
X192881250Y-108743750D03*
%TO.N,row1*%
X174625000Y-73025000D03*
X174625000Y-78581250D03*
X136525000Y-78581250D03*
X136525000Y-73025000D03*
X155575000Y-72231250D03*
X155575000Y-78581250D03*
%TO.N,row2*%
X174625000Y-91281250D03*
X174625000Y-97631250D03*
X155575000Y-91281250D03*
X155575000Y-97631250D03*
X136525000Y-91281250D03*
X136525000Y-97631250D03*
%TO.N,row3*%
X155575000Y-110331250D03*
X155575000Y-116681250D03*
X174625000Y-110331250D03*
X174625000Y-116681250D03*
X136525000Y-110331250D03*
X136525000Y-116681250D03*
X181768750Y-107156250D03*
%TO.N,col1*%
X120650000Y-65881250D03*
X120650000Y-84931250D03*
X120650000Y-103981250D03*
X81756250Y-103981250D03*
X77787500Y-123031250D03*
X77787500Y-142081250D03*
%TO.N,gnd*%
X130175000Y-76993750D03*
X149225000Y-76993750D03*
X168275000Y-76993750D03*
X130175000Y-96043750D03*
X149225000Y-96043750D03*
X168275000Y-96043750D03*
X130175000Y-115093750D03*
X149225000Y-115093750D03*
X168275000Y-115093750D03*
X119062500Y-76993750D03*
X119062500Y-115093750D03*
X119062500Y-96043750D03*
X176212500Y-76993750D03*
%TO.N,led1*%
X127793750Y-80168750D03*
X174625000Y-80168750D03*
%TO.N,led7*%
X127444500Y-118713250D03*
X185737500Y-119856250D03*
X185737500Y-111125000D03*
%TO.N,led2*%
X146843750Y-79375000D03*
X177006250Y-79375000D03*
X177006250Y-79375000D03*
%TO.N,col2*%
X139763500Y-65817750D03*
X139700000Y-103981250D03*
X139763500Y-84867750D03*
X139700000Y-118268750D03*
X139700000Y-118268750D03*
X184150000Y-118268750D03*
%TO.N,led5*%
X146050000Y-99218750D03*
%TO.N,led8*%
X146843750Y-121443750D03*
X187325000Y-121443750D03*
X187325000Y-112712500D03*
%TO.N,led3*%
X165893750Y-77787500D03*
%TO.N,col3*%
X158813500Y-65817750D03*
X158813500Y-84867750D03*
X158813500Y-103917750D03*
X158750000Y-115887500D03*
%TO.N,led6*%
X165893750Y-99218750D03*
X192087500Y-99218750D03*
%TD*%
D16*
%TO.N,row4*%
X212725000Y-126206250D02*
X212725000Y-119856250D01*
X196056250Y-126206250D02*
X196056250Y-97631250D01*
%TO.N,row5*%
X192087500Y-109537500D02*
X192881250Y-108743750D01*
X192087500Y-145256250D02*
X192087500Y-109537500D01*
%TO.N,row1*%
X174625000Y-73025000D02*
X174625000Y-78581250D01*
X136525000Y-78581250D02*
X136525000Y-73025000D01*
X155575000Y-72231250D02*
X155575000Y-78581250D01*
X155575000Y-78581250D02*
X155575000Y-78581250D01*
%TO.N,row2*%
X174625000Y-91281250D02*
X174625000Y-97631250D01*
X155575000Y-91281250D02*
X155575000Y-97631250D01*
X136525000Y-91281250D02*
X136525000Y-97631250D01*
%TO.N,row3*%
X155575000Y-110331250D02*
X155575000Y-116681250D01*
X174625000Y-110331250D02*
X174625000Y-116681250D01*
X136525000Y-110331250D02*
X136525000Y-116681250D01*
X181768750Y-90906600D02*
X181997350Y-90678000D01*
X181768750Y-107156250D02*
X181768750Y-90906600D01*
%TO.N,col1*%
X120650000Y-65881250D02*
X120650000Y-84931250D01*
X120650000Y-84931250D02*
X120650000Y-103981250D01*
X81756250Y-122682000D02*
X82042000Y-122967750D01*
X81756250Y-103981250D02*
X81756250Y-122682000D01*
X77787500Y-123031250D02*
X77787500Y-142081250D01*
%TO.N,gnd*%
X129984500Y-73437750D02*
X129984500Y-76803250D01*
X129984500Y-76803250D02*
X130175000Y-76993750D01*
X149225000Y-73628250D02*
X149034500Y-73437750D01*
X149225000Y-76993750D02*
X149225000Y-73628250D01*
X168275000Y-73628250D02*
X168084500Y-73437750D01*
X168275000Y-76993750D02*
X168275000Y-73628250D01*
X129984500Y-92487750D02*
X129984500Y-95853250D01*
X129984500Y-95853250D02*
X130175000Y-96043750D01*
X149225000Y-92678250D02*
X149034500Y-92487750D01*
X149225000Y-96043750D02*
X149225000Y-92678250D01*
X168275000Y-92678250D02*
X168084500Y-92487750D01*
X168275000Y-96043750D02*
X168275000Y-92678250D01*
X129984500Y-111537750D02*
X129984500Y-114903250D01*
X129984500Y-114903250D02*
X130175000Y-115093750D01*
X149225000Y-111728250D02*
X149034500Y-111537750D01*
X149225000Y-115093750D02*
X149225000Y-111728250D01*
X168084500Y-111537750D02*
X168084500Y-114903250D01*
X168084500Y-114903250D02*
X168275000Y-115093750D01*
X119062500Y-76993750D02*
X119062500Y-96043750D01*
X119062500Y-96043750D02*
X119062500Y-115093750D01*
%TO.N,led1*%
X127444500Y-73437750D02*
X127444500Y-79819500D01*
X127444500Y-79819500D02*
X127793750Y-80168750D01*
%TO.N,led7*%
X127444500Y-111537750D02*
X127444500Y-118713250D01*
X127444500Y-118713250D02*
X127444500Y-118713250D01*
X185737500Y-119856250D02*
X185737500Y-111125000D01*
%TO.N,led2*%
X146494500Y-79025750D02*
X146843750Y-79375000D01*
X146494500Y-73437750D02*
X146494500Y-79025750D01*
%TO.N,col2*%
X139763500Y-65817750D02*
X139763500Y-84867750D01*
X139763500Y-101760748D02*
X139700000Y-101824248D01*
X139763500Y-84867750D02*
X139763500Y-101760748D01*
X139700000Y-101824248D02*
X139700000Y-103981250D01*
X139700000Y-103981250D02*
X139700000Y-103981250D01*
X139763500Y-84867750D02*
X139763500Y-84867750D01*
X139700000Y-103981250D02*
X139700000Y-117475000D01*
X139700000Y-117475000D02*
X139700000Y-118268750D01*
X139700000Y-118268750D02*
X139700000Y-118268750D01*
X139700000Y-118268750D02*
X139700000Y-118268750D01*
X184150000Y-90836750D02*
X184308750Y-90678000D01*
X184150000Y-118268750D02*
X184150000Y-90836750D01*
%TO.N,led5*%
X146494500Y-98774250D02*
X146050000Y-99218750D01*
X146494500Y-92487750D02*
X146494500Y-98774250D01*
%TO.N,led8*%
X146494500Y-111537750D02*
X146494500Y-121094500D01*
X146494500Y-121094500D02*
X146843750Y-121443750D01*
X187325000Y-121443750D02*
X187325000Y-112712500D01*
%TO.N,led3*%
X165544500Y-73437750D02*
X165544500Y-77438250D01*
X165544500Y-77438250D02*
X165893750Y-77787500D01*
%TO.N,col3*%
X158813500Y-65817750D02*
X158813500Y-84867750D01*
X158813500Y-84867750D02*
X158813500Y-103917750D01*
X158813500Y-103917750D02*
X158813500Y-115824000D01*
X158813500Y-115824000D02*
X158750000Y-115887500D01*
X201104500Y-113442750D02*
X201104500Y-101092000D01*
X194468750Y-94456250D02*
X194468750Y-90678000D01*
X201104500Y-101092000D02*
X194468750Y-94456250D01*
%TO.N,led6*%
X192087500Y-90836750D02*
X191928750Y-90678000D01*
X165544500Y-98869500D02*
X165893750Y-99218750D01*
X165544500Y-92487750D02*
X165544500Y-98869500D01*
X191928750Y-99060000D02*
X192087500Y-99218750D01*
X191928750Y-90678000D02*
X191928750Y-99060000D01*
%TO.N,Net-(U1-Pad20)*%
X181768750Y-73025000D02*
X181768750Y-72898000D01*
%TD*%
M02*
