%TF.GenerationSoftware,KiCad,Pcbnew,(5.1.9-0-10_14)*%
%TF.CreationDate,2021-04-17T16:13:15+09:00*%
%TF.ProjectId,IKIDS,494b4944-532e-46b6-9963-61645f706362,rev?*%
%TF.SameCoordinates,Original*%
%TF.FileFunction,Legend,Bot*%
%TF.FilePolarity,Positive*%
%FSLAX46Y46*%
G04 Gerber Fmt 4.6, Leading zero omitted, Abs format (unit mm)*
G04 Created by KiCad (PCBNEW (5.1.9-0-10_14)) date 2021-04-17 16:13:15*
%MOMM*%
%LPD*%
G01*
G04 APERTURE LIST*
%ADD10C,0.100000*%
%ADD11C,0.150000*%
%ADD12C,0.120000*%
%ADD13C,0.381000*%
G04 APERTURE END LIST*
D10*
G36*
X102393750Y-73818750D02*
G01*
X105568750Y-73818750D01*
X105568750Y-76993750D01*
X102393750Y-76993750D01*
X102393750Y-86518750D01*
X105568750Y-86518750D01*
X105568750Y-89693750D01*
X99218750Y-89693750D01*
X99218750Y-83343750D01*
X92868750Y-83343750D01*
X92868750Y-86518750D01*
X96043750Y-86518750D01*
X96043750Y-89693750D01*
X89693750Y-89693750D01*
X89693750Y-76993750D01*
X86518750Y-76993750D01*
X86518750Y-73818750D01*
X92868750Y-73818750D01*
X92868750Y-78581250D01*
X99218750Y-78581250D01*
X99218750Y-73818750D01*
X102393750Y-70643750D01*
X102393750Y-73818750D01*
G37*
X102393750Y-73818750D02*
X105568750Y-73818750D01*
X105568750Y-76993750D01*
X102393750Y-76993750D01*
X102393750Y-86518750D01*
X105568750Y-86518750D01*
X105568750Y-89693750D01*
X99218750Y-89693750D01*
X99218750Y-83343750D01*
X92868750Y-83343750D01*
X92868750Y-86518750D01*
X96043750Y-86518750D01*
X96043750Y-89693750D01*
X89693750Y-89693750D01*
X89693750Y-76993750D01*
X86518750Y-76993750D01*
X86518750Y-73818750D01*
X92868750Y-73818750D01*
X92868750Y-78581250D01*
X99218750Y-78581250D01*
X99218750Y-73818750D01*
X102393750Y-70643750D01*
X102393750Y-73818750D01*
D11*
X108345535Y-90939880D02*
X108345535Y-89939880D01*
X108345535Y-90416071D02*
X107774107Y-90416071D01*
X107774107Y-90939880D02*
X107774107Y-89939880D01*
X106869345Y-90273214D02*
X106869345Y-90939880D01*
X107297916Y-90273214D02*
X107297916Y-90797023D01*
X107250297Y-90892261D01*
X107155059Y-90939880D01*
X107012202Y-90939880D01*
X106916964Y-90892261D01*
X106869345Y-90844642D01*
X106440773Y-90892261D02*
X106345535Y-90939880D01*
X106155059Y-90939880D01*
X106059821Y-90892261D01*
X106012202Y-90797023D01*
X106012202Y-90749404D01*
X106059821Y-90654166D01*
X106155059Y-90606547D01*
X106297916Y-90606547D01*
X106393154Y-90558928D01*
X106440773Y-90463690D01*
X106440773Y-90416071D01*
X106393154Y-90320833D01*
X106297916Y-90273214D01*
X106155059Y-90273214D01*
X106059821Y-90320833D01*
X105583630Y-90939880D02*
X105583630Y-89939880D01*
X105488392Y-90558928D02*
X105202678Y-90939880D01*
X105202678Y-90273214D02*
X105583630Y-90654166D01*
X104393154Y-90892261D02*
X104488392Y-90939880D01*
X104678869Y-90939880D01*
X104774107Y-90892261D01*
X104821726Y-90797023D01*
X104821726Y-90416071D01*
X104774107Y-90320833D01*
X104678869Y-90273214D01*
X104488392Y-90273214D01*
X104393154Y-90320833D01*
X104345535Y-90416071D01*
X104345535Y-90511309D01*
X104821726Y-90606547D01*
X104012202Y-90273214D02*
X103774107Y-90939880D01*
X103536011Y-90273214D02*
X103774107Y-90939880D01*
X103869345Y-91177976D01*
X103916964Y-91225595D01*
X104012202Y-91273214D01*
X103155059Y-90939880D02*
X103155059Y-89939880D01*
X103155059Y-90320833D02*
X103059821Y-90273214D01*
X102869345Y-90273214D01*
X102774107Y-90320833D01*
X102726488Y-90368452D01*
X102678869Y-90463690D01*
X102678869Y-90749404D01*
X102726488Y-90844642D01*
X102774107Y-90892261D01*
X102869345Y-90939880D01*
X103059821Y-90939880D01*
X103155059Y-90892261D01*
X102107440Y-90939880D02*
X102202678Y-90892261D01*
X102250297Y-90844642D01*
X102297916Y-90749404D01*
X102297916Y-90463690D01*
X102250297Y-90368452D01*
X102202678Y-90320833D01*
X102107440Y-90273214D01*
X101964583Y-90273214D01*
X101869345Y-90320833D01*
X101821726Y-90368452D01*
X101774107Y-90463690D01*
X101774107Y-90749404D01*
X101821726Y-90844642D01*
X101869345Y-90892261D01*
X101964583Y-90939880D01*
X102107440Y-90939880D01*
X100916964Y-90939880D02*
X100916964Y-90416071D01*
X100964583Y-90320833D01*
X101059821Y-90273214D01*
X101250297Y-90273214D01*
X101345535Y-90320833D01*
X100916964Y-90892261D02*
X101012202Y-90939880D01*
X101250297Y-90939880D01*
X101345535Y-90892261D01*
X101393154Y-90797023D01*
X101393154Y-90701785D01*
X101345535Y-90606547D01*
X101250297Y-90558928D01*
X101012202Y-90558928D01*
X100916964Y-90511309D01*
X100440773Y-90939880D02*
X100440773Y-90273214D01*
X100440773Y-90463690D02*
X100393154Y-90368452D01*
X100345535Y-90320833D01*
X100250297Y-90273214D01*
X100155059Y-90273214D01*
X99393154Y-90939880D02*
X99393154Y-89939880D01*
X99393154Y-90892261D02*
X99488392Y-90939880D01*
X99678869Y-90939880D01*
X99774107Y-90892261D01*
X99821726Y-90844642D01*
X99869345Y-90749404D01*
X99869345Y-90463690D01*
X99821726Y-90368452D01*
X99774107Y-90320833D01*
X99678869Y-90273214D01*
X99488392Y-90273214D01*
X99393154Y-90320833D01*
X98964583Y-90892261D02*
X98869345Y-90939880D01*
X98678869Y-90939880D01*
X98583630Y-90892261D01*
X98536011Y-90797023D01*
X98536011Y-90749404D01*
X98583630Y-90654166D01*
X98678869Y-90606547D01*
X98821726Y-90606547D01*
X98916964Y-90558928D01*
X98964583Y-90463690D01*
X98964583Y-90416071D01*
X98916964Y-90320833D01*
X98821726Y-90273214D01*
X98678869Y-90273214D01*
X98583630Y-90320833D01*
X98107440Y-90558928D02*
X97345535Y-90558928D01*
X96869345Y-90939880D02*
X96869345Y-89939880D01*
X96393154Y-90939880D02*
X96393154Y-89939880D01*
X95821726Y-90939880D02*
X96250297Y-90368452D01*
X95821726Y-89939880D02*
X96393154Y-90511309D01*
X95393154Y-90939880D02*
X95393154Y-89939880D01*
X94916964Y-90939880D02*
X94916964Y-89939880D01*
X94678869Y-89939880D01*
X94536011Y-89987500D01*
X94440773Y-90082738D01*
X94393154Y-90177976D01*
X94345535Y-90368452D01*
X94345535Y-90511309D01*
X94393154Y-90701785D01*
X94440773Y-90797023D01*
X94536011Y-90892261D01*
X94678869Y-90939880D01*
X94916964Y-90939880D01*
X93964583Y-90892261D02*
X93821726Y-90939880D01*
X93583630Y-90939880D01*
X93488392Y-90892261D01*
X93440773Y-90844642D01*
X93393154Y-90749404D01*
X93393154Y-90654166D01*
X93440773Y-90558928D01*
X93488392Y-90511309D01*
X93583630Y-90463690D01*
X93774107Y-90416071D01*
X93869345Y-90368452D01*
X93916964Y-90320833D01*
X93964583Y-90225595D01*
X93964583Y-90130357D01*
X93916964Y-90035119D01*
X93869345Y-89987500D01*
X93774107Y-89939880D01*
X93536011Y-89939880D01*
X93393154Y-89987500D01*
X91631250Y-90939880D02*
X91964583Y-90463690D01*
X92202678Y-90939880D02*
X92202678Y-89939880D01*
X91821726Y-89939880D01*
X91726488Y-89987500D01*
X91678869Y-90035119D01*
X91631250Y-90130357D01*
X91631250Y-90273214D01*
X91678869Y-90368452D01*
X91726488Y-90416071D01*
X91821726Y-90463690D01*
X92202678Y-90463690D01*
X90821726Y-90892261D02*
X90916964Y-90939880D01*
X91107440Y-90939880D01*
X91202678Y-90892261D01*
X91250297Y-90797023D01*
X91250297Y-90416071D01*
X91202678Y-90320833D01*
X91107440Y-90273214D01*
X90916964Y-90273214D01*
X90821726Y-90320833D01*
X90774107Y-90416071D01*
X90774107Y-90511309D01*
X91250297Y-90606547D01*
X90440773Y-90273214D02*
X90202678Y-90939880D01*
X89964583Y-90273214D01*
X88297916Y-90939880D02*
X88869345Y-90939880D01*
X88583630Y-90939880D02*
X88583630Y-89939880D01*
X88678869Y-90082738D01*
X88774107Y-90177976D01*
X88869345Y-90225595D01*
X87869345Y-90844642D02*
X87821726Y-90892261D01*
X87869345Y-90939880D01*
X87916964Y-90892261D01*
X87869345Y-90844642D01*
X87869345Y-90939880D01*
X87202678Y-89939880D02*
X87107440Y-89939880D01*
X87012202Y-89987500D01*
X86964583Y-90035119D01*
X86916964Y-90130357D01*
X86869345Y-90320833D01*
X86869345Y-90558928D01*
X86916964Y-90749404D01*
X86964583Y-90844642D01*
X87012202Y-90892261D01*
X87107440Y-90939880D01*
X87202678Y-90939880D01*
X87297916Y-90892261D01*
X87345535Y-90844642D01*
X87393154Y-90749404D01*
X87440773Y-90558928D01*
X87440773Y-90320833D01*
X87393154Y-90130357D01*
X87345535Y-90035119D01*
X87297916Y-89987500D01*
X87202678Y-89939880D01*
D12*
%TO.C,D12*%
X213725000Y-118137500D02*
X211725000Y-118137500D01*
X211725000Y-118137500D02*
X211725000Y-114237500D01*
X213725000Y-118137500D02*
X213725000Y-114237500D01*
%TO.C,D11*%
X175625000Y-108612500D02*
X173625000Y-108612500D01*
X173625000Y-108612500D02*
X173625000Y-104712500D01*
X175625000Y-108612500D02*
X175625000Y-104712500D01*
%TO.C,D10*%
X175625000Y-89562500D02*
X173625000Y-89562500D01*
X173625000Y-89562500D02*
X173625000Y-85662500D01*
X175625000Y-89562500D02*
X175625000Y-85662500D01*
%TO.C,D9*%
X175625000Y-70512500D02*
X173625000Y-70512500D01*
X173625000Y-70512500D02*
X173625000Y-66612500D01*
X175625000Y-70512500D02*
X175625000Y-66612500D01*
%TO.C,D8*%
X156575000Y-108612500D02*
X154575000Y-108612500D01*
X154575000Y-108612500D02*
X154575000Y-104712500D01*
X156575000Y-108612500D02*
X156575000Y-104712500D01*
%TO.C,D7*%
X156575000Y-89562500D02*
X154575000Y-89562500D01*
X154575000Y-89562500D02*
X154575000Y-85662500D01*
X156575000Y-89562500D02*
X156575000Y-85662500D01*
%TO.C,D6*%
X156575000Y-70512500D02*
X154575000Y-70512500D01*
X154575000Y-70512500D02*
X154575000Y-66612500D01*
X156575000Y-70512500D02*
X156575000Y-66612500D01*
%TO.C,D5*%
X137525000Y-108612500D02*
X135525000Y-108612500D01*
X135525000Y-108612500D02*
X135525000Y-104712500D01*
X137525000Y-108612500D02*
X137525000Y-104712500D01*
%TO.C,D4*%
X137525000Y-89706250D02*
X135525000Y-89706250D01*
X135525000Y-89706250D02*
X135525000Y-85806250D01*
X137525000Y-89706250D02*
X137525000Y-85806250D01*
%TO.C,D3*%
X137525000Y-70512500D02*
X135525000Y-70512500D01*
X135525000Y-70512500D02*
X135525000Y-66612500D01*
X137525000Y-70512500D02*
X137525000Y-66612500D01*
%TO.C,D2*%
X94662500Y-146712500D02*
X92662500Y-146712500D01*
X92662500Y-146712500D02*
X92662500Y-142812500D01*
X94662500Y-146712500D02*
X94662500Y-142812500D01*
%TO.C,D1*%
X94662500Y-127662500D02*
X92662500Y-127662500D01*
X92662500Y-127662500D02*
X92662500Y-123762500D01*
X94662500Y-127662500D02*
X94662500Y-123762500D01*
D13*
%TO.C,U1*%
X195738750Y-61468000D02*
X198278750Y-61468000D01*
X198278750Y-58928000D02*
X198278750Y-61468000D01*
X180498750Y-58928000D02*
X198278750Y-58928000D01*
X180498750Y-61468000D02*
X180498750Y-58928000D01*
D11*
G36*
X184457182Y-67947360D02*
G01*
X184457182Y-68147360D01*
X184557182Y-68147360D01*
X184557182Y-67947360D01*
X184457182Y-67947360D01*
G37*
X184457182Y-67947360D02*
X184457182Y-68147360D01*
X184557182Y-68147360D01*
X184557182Y-67947360D01*
X184457182Y-67947360D01*
G36*
X184857182Y-67347360D02*
G01*
X184857182Y-68147360D01*
X184957182Y-68147360D01*
X184957182Y-67347360D01*
X184857182Y-67347360D01*
G37*
X184857182Y-67347360D02*
X184857182Y-68147360D01*
X184957182Y-68147360D01*
X184957182Y-67347360D01*
X184857182Y-67347360D01*
G36*
X184457182Y-67347360D02*
G01*
X184457182Y-67447360D01*
X184957182Y-67447360D01*
X184957182Y-67347360D01*
X184457182Y-67347360D01*
G37*
X184457182Y-67347360D02*
X184457182Y-67447360D01*
X184957182Y-67447360D01*
X184957182Y-67347360D01*
X184457182Y-67347360D01*
G36*
X184657182Y-67747360D02*
G01*
X184657182Y-67847360D01*
X184757182Y-67847360D01*
X184757182Y-67747360D01*
X184657182Y-67747360D01*
G37*
X184657182Y-67747360D02*
X184657182Y-67847360D01*
X184757182Y-67847360D01*
X184757182Y-67747360D01*
X184657182Y-67747360D01*
G36*
X184457182Y-67347360D02*
G01*
X184457182Y-67647360D01*
X184557182Y-67647360D01*
X184557182Y-67347360D01*
X184457182Y-67347360D01*
G37*
X184457182Y-67347360D02*
X184457182Y-67647360D01*
X184557182Y-67647360D01*
X184557182Y-67347360D01*
X184457182Y-67347360D01*
D13*
X195738750Y-64008000D02*
X198278750Y-64008000D01*
X195738750Y-61468000D02*
X195738750Y-64008000D01*
X180498750Y-91948000D02*
X180498750Y-61468000D01*
X198278750Y-91948000D02*
X180498750Y-91948000D01*
X198278750Y-61468000D02*
X198278750Y-91948000D01*
%TO.C,D12*%
D11*
X215177380Y-114673214D02*
X214177380Y-114673214D01*
X214177380Y-114911309D01*
X214225000Y-115054166D01*
X214320238Y-115149404D01*
X214415476Y-115197023D01*
X214605952Y-115244642D01*
X214748809Y-115244642D01*
X214939285Y-115197023D01*
X215034523Y-115149404D01*
X215129761Y-115054166D01*
X215177380Y-114911309D01*
X215177380Y-114673214D01*
X215177380Y-116197023D02*
X215177380Y-115625595D01*
X215177380Y-115911309D02*
X214177380Y-115911309D01*
X214320238Y-115816071D01*
X214415476Y-115720833D01*
X214463095Y-115625595D01*
X214272619Y-116577976D02*
X214225000Y-116625595D01*
X214177380Y-116720833D01*
X214177380Y-116958928D01*
X214225000Y-117054166D01*
X214272619Y-117101785D01*
X214367857Y-117149404D01*
X214463095Y-117149404D01*
X214605952Y-117101785D01*
X215177380Y-116530357D01*
X215177380Y-117149404D01*
%TO.C,D11*%
X177077380Y-105148214D02*
X176077380Y-105148214D01*
X176077380Y-105386309D01*
X176125000Y-105529166D01*
X176220238Y-105624404D01*
X176315476Y-105672023D01*
X176505952Y-105719642D01*
X176648809Y-105719642D01*
X176839285Y-105672023D01*
X176934523Y-105624404D01*
X177029761Y-105529166D01*
X177077380Y-105386309D01*
X177077380Y-105148214D01*
X177077380Y-106672023D02*
X177077380Y-106100595D01*
X177077380Y-106386309D02*
X176077380Y-106386309D01*
X176220238Y-106291071D01*
X176315476Y-106195833D01*
X176363095Y-106100595D01*
X177077380Y-107624404D02*
X177077380Y-107052976D01*
X177077380Y-107338690D02*
X176077380Y-107338690D01*
X176220238Y-107243452D01*
X176315476Y-107148214D01*
X176363095Y-107052976D01*
%TO.C,D10*%
X177077380Y-86098214D02*
X176077380Y-86098214D01*
X176077380Y-86336309D01*
X176125000Y-86479166D01*
X176220238Y-86574404D01*
X176315476Y-86622023D01*
X176505952Y-86669642D01*
X176648809Y-86669642D01*
X176839285Y-86622023D01*
X176934523Y-86574404D01*
X177029761Y-86479166D01*
X177077380Y-86336309D01*
X177077380Y-86098214D01*
X177077380Y-87622023D02*
X177077380Y-87050595D01*
X177077380Y-87336309D02*
X176077380Y-87336309D01*
X176220238Y-87241071D01*
X176315476Y-87145833D01*
X176363095Y-87050595D01*
X176077380Y-88241071D02*
X176077380Y-88336309D01*
X176125000Y-88431547D01*
X176172619Y-88479166D01*
X176267857Y-88526785D01*
X176458333Y-88574404D01*
X176696428Y-88574404D01*
X176886904Y-88526785D01*
X176982142Y-88479166D01*
X177029761Y-88431547D01*
X177077380Y-88336309D01*
X177077380Y-88241071D01*
X177029761Y-88145833D01*
X176982142Y-88098214D01*
X176886904Y-88050595D01*
X176696428Y-88002976D01*
X176458333Y-88002976D01*
X176267857Y-88050595D01*
X176172619Y-88098214D01*
X176125000Y-88145833D01*
X176077380Y-88241071D01*
%TO.C,D9*%
X177077380Y-67524404D02*
X176077380Y-67524404D01*
X176077380Y-67762500D01*
X176125000Y-67905357D01*
X176220238Y-68000595D01*
X176315476Y-68048214D01*
X176505952Y-68095833D01*
X176648809Y-68095833D01*
X176839285Y-68048214D01*
X176934523Y-68000595D01*
X177029761Y-67905357D01*
X177077380Y-67762500D01*
X177077380Y-67524404D01*
X177077380Y-68572023D02*
X177077380Y-68762500D01*
X177029761Y-68857738D01*
X176982142Y-68905357D01*
X176839285Y-69000595D01*
X176648809Y-69048214D01*
X176267857Y-69048214D01*
X176172619Y-69000595D01*
X176125000Y-68952976D01*
X176077380Y-68857738D01*
X176077380Y-68667261D01*
X176125000Y-68572023D01*
X176172619Y-68524404D01*
X176267857Y-68476785D01*
X176505952Y-68476785D01*
X176601190Y-68524404D01*
X176648809Y-68572023D01*
X176696428Y-68667261D01*
X176696428Y-68857738D01*
X176648809Y-68952976D01*
X176601190Y-69000595D01*
X176505952Y-69048214D01*
%TO.C,D8*%
X158027380Y-105624404D02*
X157027380Y-105624404D01*
X157027380Y-105862500D01*
X157075000Y-106005357D01*
X157170238Y-106100595D01*
X157265476Y-106148214D01*
X157455952Y-106195833D01*
X157598809Y-106195833D01*
X157789285Y-106148214D01*
X157884523Y-106100595D01*
X157979761Y-106005357D01*
X158027380Y-105862500D01*
X158027380Y-105624404D01*
X157455952Y-106767261D02*
X157408333Y-106672023D01*
X157360714Y-106624404D01*
X157265476Y-106576785D01*
X157217857Y-106576785D01*
X157122619Y-106624404D01*
X157075000Y-106672023D01*
X157027380Y-106767261D01*
X157027380Y-106957738D01*
X157075000Y-107052976D01*
X157122619Y-107100595D01*
X157217857Y-107148214D01*
X157265476Y-107148214D01*
X157360714Y-107100595D01*
X157408333Y-107052976D01*
X157455952Y-106957738D01*
X157455952Y-106767261D01*
X157503571Y-106672023D01*
X157551190Y-106624404D01*
X157646428Y-106576785D01*
X157836904Y-106576785D01*
X157932142Y-106624404D01*
X157979761Y-106672023D01*
X158027380Y-106767261D01*
X158027380Y-106957738D01*
X157979761Y-107052976D01*
X157932142Y-107100595D01*
X157836904Y-107148214D01*
X157646428Y-107148214D01*
X157551190Y-107100595D01*
X157503571Y-107052976D01*
X157455952Y-106957738D01*
%TO.C,D7*%
X158027380Y-86574404D02*
X157027380Y-86574404D01*
X157027380Y-86812500D01*
X157075000Y-86955357D01*
X157170238Y-87050595D01*
X157265476Y-87098214D01*
X157455952Y-87145833D01*
X157598809Y-87145833D01*
X157789285Y-87098214D01*
X157884523Y-87050595D01*
X157979761Y-86955357D01*
X158027380Y-86812500D01*
X158027380Y-86574404D01*
X157027380Y-87479166D02*
X157027380Y-88145833D01*
X158027380Y-87717261D01*
%TO.C,D6*%
X158027380Y-67524404D02*
X157027380Y-67524404D01*
X157027380Y-67762500D01*
X157075000Y-67905357D01*
X157170238Y-68000595D01*
X157265476Y-68048214D01*
X157455952Y-68095833D01*
X157598809Y-68095833D01*
X157789285Y-68048214D01*
X157884523Y-68000595D01*
X157979761Y-67905357D01*
X158027380Y-67762500D01*
X158027380Y-67524404D01*
X157027380Y-68952976D02*
X157027380Y-68762500D01*
X157075000Y-68667261D01*
X157122619Y-68619642D01*
X157265476Y-68524404D01*
X157455952Y-68476785D01*
X157836904Y-68476785D01*
X157932142Y-68524404D01*
X157979761Y-68572023D01*
X158027380Y-68667261D01*
X158027380Y-68857738D01*
X157979761Y-68952976D01*
X157932142Y-69000595D01*
X157836904Y-69048214D01*
X157598809Y-69048214D01*
X157503571Y-69000595D01*
X157455952Y-68952976D01*
X157408333Y-68857738D01*
X157408333Y-68667261D01*
X157455952Y-68572023D01*
X157503571Y-68524404D01*
X157598809Y-68476785D01*
%TO.C,D5*%
X138977380Y-105624404D02*
X137977380Y-105624404D01*
X137977380Y-105862500D01*
X138025000Y-106005357D01*
X138120238Y-106100595D01*
X138215476Y-106148214D01*
X138405952Y-106195833D01*
X138548809Y-106195833D01*
X138739285Y-106148214D01*
X138834523Y-106100595D01*
X138929761Y-106005357D01*
X138977380Y-105862500D01*
X138977380Y-105624404D01*
X137977380Y-107100595D02*
X137977380Y-106624404D01*
X138453571Y-106576785D01*
X138405952Y-106624404D01*
X138358333Y-106719642D01*
X138358333Y-106957738D01*
X138405952Y-107052976D01*
X138453571Y-107100595D01*
X138548809Y-107148214D01*
X138786904Y-107148214D01*
X138882142Y-107100595D01*
X138929761Y-107052976D01*
X138977380Y-106957738D01*
X138977380Y-106719642D01*
X138929761Y-106624404D01*
X138882142Y-106576785D01*
%TO.C,D4*%
X138977380Y-86718154D02*
X137977380Y-86718154D01*
X137977380Y-86956250D01*
X138025000Y-87099107D01*
X138120238Y-87194345D01*
X138215476Y-87241964D01*
X138405952Y-87289583D01*
X138548809Y-87289583D01*
X138739285Y-87241964D01*
X138834523Y-87194345D01*
X138929761Y-87099107D01*
X138977380Y-86956250D01*
X138977380Y-86718154D01*
X138310714Y-88146726D02*
X138977380Y-88146726D01*
X137929761Y-87908630D02*
X138644047Y-87670535D01*
X138644047Y-88289583D01*
%TO.C,D3*%
X138977380Y-67524404D02*
X137977380Y-67524404D01*
X137977380Y-67762500D01*
X138025000Y-67905357D01*
X138120238Y-68000595D01*
X138215476Y-68048214D01*
X138405952Y-68095833D01*
X138548809Y-68095833D01*
X138739285Y-68048214D01*
X138834523Y-68000595D01*
X138929761Y-67905357D01*
X138977380Y-67762500D01*
X138977380Y-67524404D01*
X137977380Y-68429166D02*
X137977380Y-69048214D01*
X138358333Y-68714880D01*
X138358333Y-68857738D01*
X138405952Y-68952976D01*
X138453571Y-69000595D01*
X138548809Y-69048214D01*
X138786904Y-69048214D01*
X138882142Y-69000595D01*
X138929761Y-68952976D01*
X138977380Y-68857738D01*
X138977380Y-68572023D01*
X138929761Y-68476785D01*
X138882142Y-68429166D01*
%TO.C,D2*%
X96114880Y-143724404D02*
X95114880Y-143724404D01*
X95114880Y-143962500D01*
X95162500Y-144105357D01*
X95257738Y-144200595D01*
X95352976Y-144248214D01*
X95543452Y-144295833D01*
X95686309Y-144295833D01*
X95876785Y-144248214D01*
X95972023Y-144200595D01*
X96067261Y-144105357D01*
X96114880Y-143962500D01*
X96114880Y-143724404D01*
X95210119Y-144676785D02*
X95162500Y-144724404D01*
X95114880Y-144819642D01*
X95114880Y-145057738D01*
X95162500Y-145152976D01*
X95210119Y-145200595D01*
X95305357Y-145248214D01*
X95400595Y-145248214D01*
X95543452Y-145200595D01*
X96114880Y-144629166D01*
X96114880Y-145248214D01*
%TO.C,D1*%
X96114880Y-124674404D02*
X95114880Y-124674404D01*
X95114880Y-124912500D01*
X95162500Y-125055357D01*
X95257738Y-125150595D01*
X95352976Y-125198214D01*
X95543452Y-125245833D01*
X95686309Y-125245833D01*
X95876785Y-125198214D01*
X95972023Y-125150595D01*
X96067261Y-125055357D01*
X96114880Y-124912500D01*
X96114880Y-124674404D01*
X96114880Y-126198214D02*
X96114880Y-125626785D01*
X96114880Y-125912500D02*
X95114880Y-125912500D01*
X95257738Y-125817261D01*
X95352976Y-125722023D01*
X95400595Y-125626785D01*
%TO.C,U1*%
X192519226Y-89469904D02*
X192519226Y-88669904D01*
X192328750Y-88669904D01*
X192214464Y-88708000D01*
X192138273Y-88784190D01*
X192100178Y-88860380D01*
X192062083Y-89012761D01*
X192062083Y-89127047D01*
X192100178Y-89279428D01*
X192138273Y-89355619D01*
X192214464Y-89431809D01*
X192328750Y-89469904D01*
X192519226Y-89469904D01*
X191338273Y-88669904D02*
X191719226Y-88669904D01*
X191757321Y-89050857D01*
X191719226Y-89012761D01*
X191643035Y-88974666D01*
X191452559Y-88974666D01*
X191376369Y-89012761D01*
X191338273Y-89050857D01*
X191300178Y-89127047D01*
X191300178Y-89317523D01*
X191338273Y-89393714D01*
X191376369Y-89431809D01*
X191452559Y-89469904D01*
X191643035Y-89469904D01*
X191719226Y-89431809D01*
X191757321Y-89393714D01*
X187115416Y-89050857D02*
X187382083Y-89050857D01*
X187382083Y-89469904D02*
X187382083Y-88669904D01*
X187001130Y-88669904D01*
X186277321Y-89469904D02*
X186734464Y-89469904D01*
X186505892Y-89469904D02*
X186505892Y-88669904D01*
X186582083Y-88784190D01*
X186658273Y-88860380D01*
X186734464Y-88898476D01*
X189522083Y-89393714D02*
X189560178Y-89431809D01*
X189674464Y-89469904D01*
X189750654Y-89469904D01*
X189864940Y-89431809D01*
X189941130Y-89355619D01*
X189979226Y-89279428D01*
X190017321Y-89127047D01*
X190017321Y-89012761D01*
X189979226Y-88860380D01*
X189941130Y-88784190D01*
X189864940Y-88708000D01*
X189750654Y-88669904D01*
X189674464Y-88669904D01*
X189560178Y-88708000D01*
X189522083Y-88746095D01*
X189255416Y-88669904D02*
X188722083Y-88669904D01*
X189064940Y-89469904D01*
X182753047Y-89243008D02*
X182847328Y-89290148D01*
X182894469Y-89290148D01*
X182965179Y-89266578D01*
X183035890Y-89195867D01*
X183059460Y-89125157D01*
X183059460Y-89078016D01*
X183035890Y-89007306D01*
X182847328Y-88818744D01*
X182352353Y-89313719D01*
X182517345Y-89478710D01*
X182588056Y-89502280D01*
X182635196Y-89502280D01*
X182705907Y-89478710D01*
X182753047Y-89431570D01*
X182776617Y-89360859D01*
X182776617Y-89313719D01*
X182753047Y-89243008D01*
X182588056Y-89078016D01*
X183059460Y-90020825D02*
X182965179Y-89926544D01*
X182941609Y-89855834D01*
X182941609Y-89808693D01*
X182965179Y-89690842D01*
X183035890Y-89572991D01*
X183224452Y-89384429D01*
X183295162Y-89360859D01*
X183342303Y-89360859D01*
X183413014Y-89384429D01*
X183507294Y-89478710D01*
X183530865Y-89549421D01*
X183530865Y-89596561D01*
X183507294Y-89667272D01*
X183389443Y-89785123D01*
X183318733Y-89808693D01*
X183271592Y-89808693D01*
X183200882Y-89785123D01*
X183106601Y-89690842D01*
X183083030Y-89620132D01*
X183083030Y-89572991D01*
X183106601Y-89502280D01*
X185122083Y-89258000D02*
X185355416Y-89258000D01*
X185355416Y-89624666D02*
X185355416Y-88924666D01*
X185022083Y-88924666D01*
X184622083Y-88924666D02*
X184555416Y-88924666D01*
X184488750Y-88958000D01*
X184455416Y-88991333D01*
X184422083Y-89058000D01*
X184388750Y-89191333D01*
X184388750Y-89358000D01*
X184422083Y-89491333D01*
X184455416Y-89558000D01*
X184488750Y-89591333D01*
X184555416Y-89624666D01*
X184622083Y-89624666D01*
X184688750Y-89591333D01*
X184722083Y-89558000D01*
X184755416Y-89491333D01*
X184788750Y-89358000D01*
X184788750Y-89191333D01*
X184755416Y-89058000D01*
X184722083Y-88991333D01*
X184688750Y-88958000D01*
X184622083Y-88924666D01*
X194172083Y-89258000D02*
X194072083Y-89291333D01*
X194038750Y-89324666D01*
X194005416Y-89391333D01*
X194005416Y-89491333D01*
X194038750Y-89558000D01*
X194072083Y-89591333D01*
X194138750Y-89624666D01*
X194405416Y-89624666D01*
X194405416Y-88924666D01*
X194172083Y-88924666D01*
X194105416Y-88958000D01*
X194072083Y-88991333D01*
X194038750Y-89058000D01*
X194038750Y-89124666D01*
X194072083Y-89191333D01*
X194105416Y-89224666D01*
X194172083Y-89258000D01*
X194405416Y-89258000D01*
X193772083Y-88924666D02*
X193305416Y-88924666D01*
X193605416Y-89624666D01*
X195151098Y-62299904D02*
X194693955Y-62299904D01*
X194922526Y-63099904D02*
X194922526Y-62299904D01*
X194503479Y-62299904D02*
X193970145Y-63099904D01*
X193970145Y-62299904D02*
X194503479Y-63099904D01*
X193513002Y-62299904D02*
X193436812Y-62299904D01*
X193360622Y-62338000D01*
X193322526Y-62376095D01*
X193284431Y-62452285D01*
X193246336Y-62604666D01*
X193246336Y-62795142D01*
X193284431Y-62947523D01*
X193322526Y-63023714D01*
X193360622Y-63061809D01*
X193436812Y-63099904D01*
X193513002Y-63099904D01*
X193589193Y-63061809D01*
X193627288Y-63023714D01*
X193665383Y-62947523D01*
X193703479Y-62795142D01*
X193703479Y-62604666D01*
X193665383Y-62452285D01*
X193627288Y-62376095D01*
X193589193Y-62338000D01*
X193513002Y-62299904D01*
X192332050Y-62261809D02*
X193017764Y-63290380D01*
X192065383Y-63099904D02*
X192065383Y-62299904D01*
X191874907Y-62299904D01*
X191760622Y-62338000D01*
X191684431Y-62414190D01*
X191646336Y-62490380D01*
X191608241Y-62642761D01*
X191608241Y-62757047D01*
X191646336Y-62909428D01*
X191684431Y-62985619D01*
X191760622Y-63061809D01*
X191874907Y-63099904D01*
X192065383Y-63099904D01*
X191341574Y-62299904D02*
X190846336Y-62299904D01*
X191113002Y-62604666D01*
X190998717Y-62604666D01*
X190922526Y-62642761D01*
X190884431Y-62680857D01*
X190846336Y-62757047D01*
X190846336Y-62947523D01*
X190884431Y-63023714D01*
X190922526Y-63061809D01*
X190998717Y-63099904D01*
X191227288Y-63099904D01*
X191303479Y-63061809D01*
X191341574Y-63023714D01*
X195440226Y-65639904D02*
X195440226Y-64839904D01*
X195249750Y-64839904D01*
X195135464Y-64878000D01*
X195059273Y-64954190D01*
X195021178Y-65030380D01*
X194983083Y-65182761D01*
X194983083Y-65297047D01*
X195021178Y-65449428D01*
X195059273Y-65525619D01*
X195135464Y-65601809D01*
X195249750Y-65639904D01*
X195440226Y-65639904D01*
X194678321Y-64916095D02*
X194640226Y-64878000D01*
X194564035Y-64839904D01*
X194373559Y-64839904D01*
X194297369Y-64878000D01*
X194259273Y-64916095D01*
X194221178Y-64992285D01*
X194221178Y-65068476D01*
X194259273Y-65182761D01*
X194716416Y-65639904D01*
X194221178Y-65639904D01*
X195440226Y-75799904D02*
X195440226Y-74999904D01*
X195249750Y-74999904D01*
X195135464Y-75038000D01*
X195059273Y-75114190D01*
X195021178Y-75190380D01*
X194983083Y-75342761D01*
X194983083Y-75457047D01*
X195021178Y-75609428D01*
X195059273Y-75685619D01*
X195135464Y-75761809D01*
X195249750Y-75799904D01*
X195440226Y-75799904D01*
X194487845Y-74999904D02*
X194411654Y-74999904D01*
X194335464Y-75038000D01*
X194297369Y-75076095D01*
X194259273Y-75152285D01*
X194221178Y-75304666D01*
X194221178Y-75495142D01*
X194259273Y-75647523D01*
X194297369Y-75723714D01*
X194335464Y-75761809D01*
X194411654Y-75799904D01*
X194487845Y-75799904D01*
X194564035Y-75761809D01*
X194602130Y-75723714D01*
X194640226Y-75647523D01*
X194678321Y-75495142D01*
X194678321Y-75304666D01*
X194640226Y-75152285D01*
X194602130Y-75076095D01*
X194564035Y-75038000D01*
X194487845Y-74999904D01*
X195440226Y-73259904D02*
X195440226Y-72459904D01*
X195249750Y-72459904D01*
X195135464Y-72498000D01*
X195059273Y-72574190D01*
X195021178Y-72650380D01*
X194983083Y-72802761D01*
X194983083Y-72917047D01*
X195021178Y-73069428D01*
X195059273Y-73145619D01*
X195135464Y-73221809D01*
X195249750Y-73259904D01*
X195440226Y-73259904D01*
X194221178Y-73259904D02*
X194678321Y-73259904D01*
X194449750Y-73259904D02*
X194449750Y-72459904D01*
X194525940Y-72574190D01*
X194602130Y-72650380D01*
X194678321Y-72688476D01*
X195459273Y-69958000D02*
X195535464Y-69919904D01*
X195649750Y-69919904D01*
X195764035Y-69958000D01*
X195840226Y-70034190D01*
X195878321Y-70110380D01*
X195916416Y-70262761D01*
X195916416Y-70377047D01*
X195878321Y-70529428D01*
X195840226Y-70605619D01*
X195764035Y-70681809D01*
X195649750Y-70719904D01*
X195573559Y-70719904D01*
X195459273Y-70681809D01*
X195421178Y-70643714D01*
X195421178Y-70377047D01*
X195573559Y-70377047D01*
X195078321Y-70719904D02*
X195078321Y-69919904D01*
X194621178Y-70719904D01*
X194621178Y-69919904D01*
X194240226Y-70719904D02*
X194240226Y-69919904D01*
X194049750Y-69919904D01*
X193935464Y-69958000D01*
X193859273Y-70034190D01*
X193821178Y-70110380D01*
X193783083Y-70262761D01*
X193783083Y-70377047D01*
X193821178Y-70529428D01*
X193859273Y-70605619D01*
X193935464Y-70681809D01*
X194049750Y-70719904D01*
X194240226Y-70719904D01*
X195459273Y-67418000D02*
X195535464Y-67379904D01*
X195649750Y-67379904D01*
X195764035Y-67418000D01*
X195840226Y-67494190D01*
X195878321Y-67570380D01*
X195916416Y-67722761D01*
X195916416Y-67837047D01*
X195878321Y-67989428D01*
X195840226Y-68065619D01*
X195764035Y-68141809D01*
X195649750Y-68179904D01*
X195573559Y-68179904D01*
X195459273Y-68141809D01*
X195421178Y-68103714D01*
X195421178Y-67837047D01*
X195573559Y-67837047D01*
X195078321Y-68179904D02*
X195078321Y-67379904D01*
X194621178Y-68179904D01*
X194621178Y-67379904D01*
X194240226Y-68179904D02*
X194240226Y-67379904D01*
X194049750Y-67379904D01*
X193935464Y-67418000D01*
X193859273Y-67494190D01*
X193821178Y-67570380D01*
X193783083Y-67722761D01*
X193783083Y-67837047D01*
X193821178Y-67989428D01*
X193859273Y-68065619D01*
X193935464Y-68141809D01*
X194049750Y-68179904D01*
X194240226Y-68179904D01*
X195440226Y-78339904D02*
X195440226Y-77539904D01*
X195249750Y-77539904D01*
X195135464Y-77578000D01*
X195059273Y-77654190D01*
X195021178Y-77730380D01*
X194983083Y-77882761D01*
X194983083Y-77997047D01*
X195021178Y-78149428D01*
X195059273Y-78225619D01*
X195135464Y-78301809D01*
X195249750Y-78339904D01*
X195440226Y-78339904D01*
X194297369Y-77806571D02*
X194297369Y-78339904D01*
X194487845Y-77501809D02*
X194678321Y-78073238D01*
X194183083Y-78073238D01*
X194983083Y-80803714D02*
X195021178Y-80841809D01*
X195135464Y-80879904D01*
X195211654Y-80879904D01*
X195325940Y-80841809D01*
X195402130Y-80765619D01*
X195440226Y-80689428D01*
X195478321Y-80537047D01*
X195478321Y-80422761D01*
X195440226Y-80270380D01*
X195402130Y-80194190D01*
X195325940Y-80118000D01*
X195211654Y-80079904D01*
X195135464Y-80079904D01*
X195021178Y-80118000D01*
X194983083Y-80156095D01*
X194297369Y-80079904D02*
X194449750Y-80079904D01*
X194525940Y-80118000D01*
X194564035Y-80156095D01*
X194640226Y-80270380D01*
X194678321Y-80422761D01*
X194678321Y-80727523D01*
X194640226Y-80803714D01*
X194602130Y-80841809D01*
X194525940Y-80879904D01*
X194373559Y-80879904D01*
X194297369Y-80841809D01*
X194259273Y-80803714D01*
X194221178Y-80727523D01*
X194221178Y-80537047D01*
X194259273Y-80460857D01*
X194297369Y-80422761D01*
X194373559Y-80384666D01*
X194525940Y-80384666D01*
X194602130Y-80422761D01*
X194640226Y-80460857D01*
X194678321Y-80537047D01*
X195440226Y-83419904D02*
X195440226Y-82619904D01*
X195249750Y-82619904D01*
X195135464Y-82658000D01*
X195059273Y-82734190D01*
X195021178Y-82810380D01*
X194983083Y-82962761D01*
X194983083Y-83077047D01*
X195021178Y-83229428D01*
X195059273Y-83305619D01*
X195135464Y-83381809D01*
X195249750Y-83419904D01*
X195440226Y-83419904D01*
X194716416Y-82619904D02*
X194183083Y-82619904D01*
X194525940Y-83419904D01*
X195402130Y-85540857D02*
X195135464Y-85540857D01*
X195021178Y-85959904D02*
X195402130Y-85959904D01*
X195402130Y-85159904D01*
X195021178Y-85159904D01*
X194335464Y-85159904D02*
X194487845Y-85159904D01*
X194564035Y-85198000D01*
X194602130Y-85236095D01*
X194678321Y-85350380D01*
X194716416Y-85502761D01*
X194716416Y-85807523D01*
X194678321Y-85883714D01*
X194640226Y-85921809D01*
X194564035Y-85959904D01*
X194411654Y-85959904D01*
X194335464Y-85921809D01*
X194297369Y-85883714D01*
X194259273Y-85807523D01*
X194259273Y-85617047D01*
X194297369Y-85540857D01*
X194335464Y-85502761D01*
X194411654Y-85464666D01*
X194564035Y-85464666D01*
X194640226Y-85502761D01*
X194678321Y-85540857D01*
X194716416Y-85617047D01*
X195173559Y-88080857D02*
X195059273Y-88118952D01*
X195021178Y-88157047D01*
X194983083Y-88233238D01*
X194983083Y-88347523D01*
X195021178Y-88423714D01*
X195059273Y-88461809D01*
X195135464Y-88499904D01*
X195440226Y-88499904D01*
X195440226Y-87699904D01*
X195173559Y-87699904D01*
X195097369Y-87738000D01*
X195059273Y-87776095D01*
X195021178Y-87852285D01*
X195021178Y-87928476D01*
X195059273Y-88004666D01*
X195097369Y-88042761D01*
X195173559Y-88080857D01*
X195440226Y-88080857D01*
X194297369Y-87966571D02*
X194297369Y-88499904D01*
X194487845Y-87661809D02*
X194678321Y-88233238D01*
X194183083Y-88233238D01*
X195953741Y-89172297D02*
X195906601Y-89266578D01*
X195906601Y-89313719D01*
X195930171Y-89384429D01*
X196000882Y-89455140D01*
X196071592Y-89478710D01*
X196118733Y-89478710D01*
X196189443Y-89455140D01*
X196378005Y-89266578D01*
X195883030Y-88771603D01*
X195718039Y-88936595D01*
X195694469Y-89007306D01*
X195694469Y-89054446D01*
X195718039Y-89125157D01*
X195765179Y-89172297D01*
X195835890Y-89195867D01*
X195883030Y-89195867D01*
X195953741Y-89172297D01*
X196118733Y-89007306D01*
X195152353Y-89502280D02*
X195388056Y-89266578D01*
X195647328Y-89478710D01*
X195600188Y-89478710D01*
X195529477Y-89502280D01*
X195411626Y-89620132D01*
X195388056Y-89690842D01*
X195388056Y-89737983D01*
X195411626Y-89808693D01*
X195529477Y-89926544D01*
X195600188Y-89950115D01*
X195647328Y-89950115D01*
X195718039Y-89926544D01*
X195835890Y-89808693D01*
X195859460Y-89737983D01*
X195859460Y-89690842D01*
X184251559Y-85540857D02*
X184137273Y-85578952D01*
X184099178Y-85617047D01*
X184061083Y-85693238D01*
X184061083Y-85807523D01*
X184099178Y-85883714D01*
X184137273Y-85921809D01*
X184213464Y-85959904D01*
X184518226Y-85959904D01*
X184518226Y-85159904D01*
X184251559Y-85159904D01*
X184175369Y-85198000D01*
X184137273Y-85236095D01*
X184099178Y-85312285D01*
X184099178Y-85388476D01*
X184137273Y-85464666D01*
X184175369Y-85502761D01*
X184251559Y-85540857D01*
X184518226Y-85540857D01*
X183794416Y-85159904D02*
X183299178Y-85159904D01*
X183565845Y-85464666D01*
X183451559Y-85464666D01*
X183375369Y-85502761D01*
X183337273Y-85540857D01*
X183299178Y-85617047D01*
X183299178Y-85807523D01*
X183337273Y-85883714D01*
X183375369Y-85921809D01*
X183451559Y-85959904D01*
X183680130Y-85959904D01*
X183756321Y-85921809D01*
X183794416Y-85883714D01*
X184251559Y-83000857D02*
X184137273Y-83038952D01*
X184099178Y-83077047D01*
X184061083Y-83153238D01*
X184061083Y-83267523D01*
X184099178Y-83343714D01*
X184137273Y-83381809D01*
X184213464Y-83419904D01*
X184518226Y-83419904D01*
X184518226Y-82619904D01*
X184251559Y-82619904D01*
X184175369Y-82658000D01*
X184137273Y-82696095D01*
X184099178Y-82772285D01*
X184099178Y-82848476D01*
X184137273Y-82924666D01*
X184175369Y-82962761D01*
X184251559Y-83000857D01*
X184518226Y-83000857D01*
X183299178Y-83419904D02*
X183756321Y-83419904D01*
X183527750Y-83419904D02*
X183527750Y-82619904D01*
X183603940Y-82734190D01*
X183680130Y-82810380D01*
X183756321Y-82848476D01*
X184194416Y-72840857D02*
X184461083Y-72840857D01*
X184461083Y-73259904D02*
X184461083Y-72459904D01*
X184080130Y-72459904D01*
X183432511Y-72726571D02*
X183432511Y-73259904D01*
X183622988Y-72421809D02*
X183813464Y-72993238D01*
X183318226Y-72993238D01*
X184994416Y-69919904D02*
X184727750Y-70719904D01*
X184461083Y-69919904D01*
X183737273Y-70643714D02*
X183775369Y-70681809D01*
X183889654Y-70719904D01*
X183965845Y-70719904D01*
X184080130Y-70681809D01*
X184156321Y-70605619D01*
X184194416Y-70529428D01*
X184232511Y-70377047D01*
X184232511Y-70262761D01*
X184194416Y-70110380D01*
X184156321Y-70034190D01*
X184080130Y-69958000D01*
X183965845Y-69919904D01*
X183889654Y-69919904D01*
X183775369Y-69958000D01*
X183737273Y-69996095D01*
X182937273Y-70643714D02*
X182975369Y-70681809D01*
X183089654Y-70719904D01*
X183165845Y-70719904D01*
X183280130Y-70681809D01*
X183356321Y-70605619D01*
X183394416Y-70529428D01*
X183432511Y-70377047D01*
X183432511Y-70262761D01*
X183394416Y-70110380D01*
X183356321Y-70034190D01*
X183280130Y-69958000D01*
X183165845Y-69919904D01*
X183089654Y-69919904D01*
X182975369Y-69958000D01*
X182937273Y-69996095D01*
X184188963Y-68111809D02*
X184074677Y-68149904D01*
X183884201Y-68149904D01*
X183808010Y-68111809D01*
X183769915Y-68073714D01*
X183731820Y-67997523D01*
X183731820Y-67921333D01*
X183769915Y-67845142D01*
X183808010Y-67807047D01*
X183884201Y-67768952D01*
X184036582Y-67730857D01*
X184112772Y-67692761D01*
X184150868Y-67654666D01*
X184188963Y-67578476D01*
X184188963Y-67502285D01*
X184150868Y-67426095D01*
X184112772Y-67388000D01*
X184036582Y-67349904D01*
X183846106Y-67349904D01*
X183731820Y-67388000D01*
X183503249Y-67349904D02*
X183046106Y-67349904D01*
X183274677Y-68149904D02*
X183274677Y-67349904D01*
X184537273Y-64878000D02*
X184613464Y-64839904D01*
X184727750Y-64839904D01*
X184842035Y-64878000D01*
X184918226Y-64954190D01*
X184956321Y-65030380D01*
X184994416Y-65182761D01*
X184994416Y-65297047D01*
X184956321Y-65449428D01*
X184918226Y-65525619D01*
X184842035Y-65601809D01*
X184727750Y-65639904D01*
X184651559Y-65639904D01*
X184537273Y-65601809D01*
X184499178Y-65563714D01*
X184499178Y-65297047D01*
X184651559Y-65297047D01*
X184156321Y-65639904D02*
X184156321Y-64839904D01*
X183699178Y-65639904D01*
X183699178Y-64839904D01*
X183318226Y-65639904D02*
X183318226Y-64839904D01*
X183127750Y-64839904D01*
X183013464Y-64878000D01*
X182937273Y-64954190D01*
X182899178Y-65030380D01*
X182861083Y-65182761D01*
X182861083Y-65297047D01*
X182899178Y-65449428D01*
X182937273Y-65525619D01*
X183013464Y-65601809D01*
X183127750Y-65639904D01*
X183318226Y-65639904D01*
X184251559Y-62680857D02*
X184137273Y-62718952D01*
X184099178Y-62757047D01*
X184061083Y-62833238D01*
X184061083Y-62947523D01*
X184099178Y-63023714D01*
X184137273Y-63061809D01*
X184213464Y-63099904D01*
X184518226Y-63099904D01*
X184518226Y-62299904D01*
X184251559Y-62299904D01*
X184175369Y-62338000D01*
X184137273Y-62376095D01*
X184099178Y-62452285D01*
X184099178Y-62528476D01*
X184137273Y-62604666D01*
X184175369Y-62642761D01*
X184251559Y-62680857D01*
X184518226Y-62680857D01*
X183565845Y-62299904D02*
X183489654Y-62299904D01*
X183413464Y-62338000D01*
X183375369Y-62376095D01*
X183337273Y-62452285D01*
X183299178Y-62604666D01*
X183299178Y-62795142D01*
X183337273Y-62947523D01*
X183375369Y-63023714D01*
X183413464Y-63061809D01*
X183489654Y-63099904D01*
X183565845Y-63099904D01*
X183642035Y-63061809D01*
X183680130Y-63023714D01*
X183718226Y-62947523D01*
X183756321Y-62795142D01*
X183756321Y-62604666D01*
X183718226Y-62452285D01*
X183680130Y-62376095D01*
X183642035Y-62338000D01*
X183565845Y-62299904D01*
X184194416Y-75380857D02*
X184461083Y-75380857D01*
X184461083Y-75799904D02*
X184461083Y-74999904D01*
X184080130Y-74999904D01*
X183394416Y-74999904D02*
X183775369Y-74999904D01*
X183813464Y-75380857D01*
X183775369Y-75342761D01*
X183699178Y-75304666D01*
X183508702Y-75304666D01*
X183432511Y-75342761D01*
X183394416Y-75380857D01*
X183356321Y-75457047D01*
X183356321Y-75647523D01*
X183394416Y-75723714D01*
X183432511Y-75761809D01*
X183508702Y-75799904D01*
X183699178Y-75799904D01*
X183775369Y-75761809D01*
X183813464Y-75723714D01*
X184194416Y-77920857D02*
X184461083Y-77920857D01*
X184461083Y-78339904D02*
X184461083Y-77539904D01*
X184080130Y-77539904D01*
X183432511Y-77539904D02*
X183584892Y-77539904D01*
X183661083Y-77578000D01*
X183699178Y-77616095D01*
X183775369Y-77730380D01*
X183813464Y-77882761D01*
X183813464Y-78187523D01*
X183775369Y-78263714D01*
X183737273Y-78301809D01*
X183661083Y-78339904D01*
X183508702Y-78339904D01*
X183432511Y-78301809D01*
X183394416Y-78263714D01*
X183356321Y-78187523D01*
X183356321Y-77997047D01*
X183394416Y-77920857D01*
X183432511Y-77882761D01*
X183508702Y-77844666D01*
X183661083Y-77844666D01*
X183737273Y-77882761D01*
X183775369Y-77920857D01*
X183813464Y-77997047D01*
X184194416Y-80460857D02*
X184461083Y-80460857D01*
X184461083Y-80879904D02*
X184461083Y-80079904D01*
X184080130Y-80079904D01*
X183851559Y-80079904D02*
X183318226Y-80079904D01*
X183661083Y-80879904D01*
X184251559Y-88080857D02*
X184137273Y-88118952D01*
X184099178Y-88157047D01*
X184061083Y-88233238D01*
X184061083Y-88347523D01*
X184099178Y-88423714D01*
X184137273Y-88461809D01*
X184213464Y-88499904D01*
X184518226Y-88499904D01*
X184518226Y-87699904D01*
X184251559Y-87699904D01*
X184175369Y-87738000D01*
X184137273Y-87776095D01*
X184099178Y-87852285D01*
X184099178Y-87928476D01*
X184137273Y-88004666D01*
X184175369Y-88042761D01*
X184251559Y-88080857D01*
X184518226Y-88080857D01*
X183756321Y-87776095D02*
X183718226Y-87738000D01*
X183642035Y-87699904D01*
X183451559Y-87699904D01*
X183375369Y-87738000D01*
X183337273Y-87776095D01*
X183299178Y-87852285D01*
X183299178Y-87928476D01*
X183337273Y-88042761D01*
X183794416Y-88499904D01*
X183299178Y-88499904D01*
%TD*%
M02*
