%TF.GenerationSoftware,KiCad,Pcbnew,(5.1.9-0-10_14)*%
%TF.CreationDate,2021-04-13T19:55:37+09:00*%
%TF.ProjectId,IKIDS,494b4944-532e-46b6-9963-61645f706362,rev?*%
%TF.SameCoordinates,Original*%
%TF.FileFunction,OtherDrawing,Comment*%
%FSLAX46Y46*%
G04 Gerber Fmt 4.6, Leading zero omitted, Abs format (unit mm)*
G04 Created by KiCad (PCBNEW (5.1.9-0-10_14)) date 2021-04-13 19:55:37*
%MOMM*%
%LPD*%
G01*
G04 APERTURE LIST*
%ADD10C,0.150000*%
%ADD11C,0.200000*%
G04 APERTURE END LIST*
D10*
%TO.C,MX2*%
X71564500Y-154082750D02*
X71564500Y-135032750D01*
X71564500Y-154082750D02*
X100139500Y-154082750D01*
X100139500Y-135032750D02*
X100139500Y-154082750D01*
X71564500Y-135032750D02*
X100139500Y-135032750D01*
X78852000Y-137557750D02*
X78852000Y-139557750D01*
X80852000Y-137557750D02*
X78852000Y-137557750D01*
X78852000Y-151557750D02*
X80852000Y-151557750D01*
X78852000Y-149557750D02*
X78852000Y-151557750D01*
X92852000Y-151557750D02*
X92852000Y-149557750D01*
X90852000Y-151557750D02*
X92852000Y-151557750D01*
X92852000Y-137557750D02*
X92852000Y-139557750D01*
X90852000Y-137557750D02*
X92852000Y-137557750D01*
%TO.C,MX6*%
X138239500Y-77882750D02*
X138239500Y-58832750D01*
X157289500Y-77882750D02*
X138239500Y-77882750D01*
X157289500Y-58832750D02*
X157289500Y-77882750D01*
X138239500Y-58832750D02*
X157289500Y-58832750D01*
X140764500Y-61357750D02*
X140764500Y-63357750D01*
X142764500Y-61357750D02*
X140764500Y-61357750D01*
X140764500Y-75357750D02*
X142764500Y-75357750D01*
X140764500Y-73357750D02*
X140764500Y-75357750D01*
X154764500Y-75357750D02*
X154764500Y-73357750D01*
X152764500Y-75357750D02*
X154764500Y-75357750D01*
X154764500Y-61357750D02*
X154764500Y-63357750D01*
X152764500Y-61357750D02*
X154764500Y-61357750D01*
%TO.C,MX11*%
X157289500Y-115982750D02*
X157289500Y-96932750D01*
X176339500Y-115982750D02*
X157289500Y-115982750D01*
X176339500Y-96932750D02*
X176339500Y-115982750D01*
X157289500Y-96932750D02*
X176339500Y-96932750D01*
X159814500Y-99457750D02*
X159814500Y-101457750D01*
X161814500Y-99457750D02*
X159814500Y-99457750D01*
X159814500Y-113457750D02*
X161814500Y-113457750D01*
X159814500Y-111457750D02*
X159814500Y-113457750D01*
X173814500Y-113457750D02*
X173814500Y-111457750D01*
X171814500Y-113457750D02*
X173814500Y-113457750D01*
X173814500Y-99457750D02*
X173814500Y-101457750D01*
X171814500Y-99457750D02*
X173814500Y-99457750D01*
%TO.C,MX4*%
X119189500Y-96932750D02*
X119189500Y-77882750D01*
X138239500Y-96932750D02*
X119189500Y-96932750D01*
X138239500Y-77882750D02*
X138239500Y-96932750D01*
X119189500Y-77882750D02*
X138239500Y-77882750D01*
X121714500Y-80407750D02*
X121714500Y-82407750D01*
X123714500Y-80407750D02*
X121714500Y-80407750D01*
X121714500Y-94407750D02*
X123714500Y-94407750D01*
X121714500Y-92407750D02*
X121714500Y-94407750D01*
X135714500Y-94407750D02*
X135714500Y-92407750D01*
X133714500Y-94407750D02*
X135714500Y-94407750D01*
X135714500Y-80407750D02*
X135714500Y-82407750D01*
X133714500Y-80407750D02*
X135714500Y-80407750D01*
%TO.C,MX1*%
X71564500Y-135032750D02*
X71564500Y-115982750D01*
X71564500Y-135032750D02*
X100139500Y-135032750D01*
X100139500Y-115982750D02*
X100139500Y-135032750D01*
X71564500Y-115982750D02*
X100139500Y-115982750D01*
X78852000Y-118507750D02*
X78852000Y-120507750D01*
X80852000Y-118507750D02*
X78852000Y-118507750D01*
X78852000Y-132507750D02*
X80852000Y-132507750D01*
X78852000Y-130507750D02*
X78852000Y-132507750D01*
X92852000Y-132507750D02*
X92852000Y-130507750D01*
X90852000Y-132507750D02*
X92852000Y-132507750D01*
X92852000Y-118507750D02*
X92852000Y-120507750D01*
X90852000Y-118507750D02*
X92852000Y-118507750D01*
D11*
%TO.C,U1*%
X185832750Y-57404000D02*
X185832750Y-62484000D01*
X193198750Y-57404000D02*
X185832750Y-57404000D01*
X193198750Y-62484000D02*
X193198750Y-57404000D01*
X185832750Y-62484000D02*
X193198750Y-62484000D01*
D10*
%TO.C,MX12*%
X195389500Y-125507750D02*
X195389500Y-106457750D01*
X214439500Y-125507750D02*
X195389500Y-125507750D01*
X214439500Y-106457750D02*
X214439500Y-125507750D01*
X195389500Y-106457750D02*
X214439500Y-106457750D01*
X197914500Y-108982750D02*
X197914500Y-110982750D01*
X199914500Y-108982750D02*
X197914500Y-108982750D01*
X197914500Y-122982750D02*
X199914500Y-122982750D01*
X197914500Y-120982750D02*
X197914500Y-122982750D01*
X211914500Y-122982750D02*
X211914500Y-120982750D01*
X209914500Y-122982750D02*
X211914500Y-122982750D01*
X211914500Y-108982750D02*
X211914500Y-110982750D01*
X209914500Y-108982750D02*
X211914500Y-108982750D01*
%TO.C,MX10*%
X157289500Y-96932750D02*
X157289500Y-77882750D01*
X176339500Y-96932750D02*
X157289500Y-96932750D01*
X176339500Y-77882750D02*
X176339500Y-96932750D01*
X157289500Y-77882750D02*
X176339500Y-77882750D01*
X159814500Y-80407750D02*
X159814500Y-82407750D01*
X161814500Y-80407750D02*
X159814500Y-80407750D01*
X159814500Y-94407750D02*
X161814500Y-94407750D01*
X159814500Y-92407750D02*
X159814500Y-94407750D01*
X173814500Y-94407750D02*
X173814500Y-92407750D01*
X171814500Y-94407750D02*
X173814500Y-94407750D01*
X173814500Y-80407750D02*
X173814500Y-82407750D01*
X171814500Y-80407750D02*
X173814500Y-80407750D01*
%TO.C,MX9*%
X157289500Y-77882750D02*
X157289500Y-58832750D01*
X176339500Y-77882750D02*
X157289500Y-77882750D01*
X176339500Y-58832750D02*
X176339500Y-77882750D01*
X157289500Y-58832750D02*
X176339500Y-58832750D01*
X159814500Y-61357750D02*
X159814500Y-63357750D01*
X161814500Y-61357750D02*
X159814500Y-61357750D01*
X159814500Y-75357750D02*
X161814500Y-75357750D01*
X159814500Y-73357750D02*
X159814500Y-75357750D01*
X173814500Y-75357750D02*
X173814500Y-73357750D01*
X171814500Y-75357750D02*
X173814500Y-75357750D01*
X173814500Y-61357750D02*
X173814500Y-63357750D01*
X171814500Y-61357750D02*
X173814500Y-61357750D01*
%TO.C,MX8*%
X138239500Y-115982750D02*
X138239500Y-96932750D01*
X157289500Y-115982750D02*
X138239500Y-115982750D01*
X157289500Y-96932750D02*
X157289500Y-115982750D01*
X138239500Y-96932750D02*
X157289500Y-96932750D01*
X140764500Y-99457750D02*
X140764500Y-101457750D01*
X142764500Y-99457750D02*
X140764500Y-99457750D01*
X140764500Y-113457750D02*
X142764500Y-113457750D01*
X140764500Y-111457750D02*
X140764500Y-113457750D01*
X154764500Y-113457750D02*
X154764500Y-111457750D01*
X152764500Y-113457750D02*
X154764500Y-113457750D01*
X154764500Y-99457750D02*
X154764500Y-101457750D01*
X152764500Y-99457750D02*
X154764500Y-99457750D01*
%TO.C,MX7*%
X138239500Y-96932750D02*
X138239500Y-77882750D01*
X157289500Y-96932750D02*
X138239500Y-96932750D01*
X157289500Y-77882750D02*
X157289500Y-96932750D01*
X138239500Y-77882750D02*
X157289500Y-77882750D01*
X140764500Y-80407750D02*
X140764500Y-82407750D01*
X142764500Y-80407750D02*
X140764500Y-80407750D01*
X140764500Y-94407750D02*
X142764500Y-94407750D01*
X140764500Y-92407750D02*
X140764500Y-94407750D01*
X154764500Y-94407750D02*
X154764500Y-92407750D01*
X152764500Y-94407750D02*
X154764500Y-94407750D01*
X154764500Y-80407750D02*
X154764500Y-82407750D01*
X152764500Y-80407750D02*
X154764500Y-80407750D01*
%TO.C,MX5*%
X133714500Y-99457750D02*
X135714500Y-99457750D01*
X135714500Y-99457750D02*
X135714500Y-101457750D01*
X133714500Y-113457750D02*
X135714500Y-113457750D01*
X135714500Y-113457750D02*
X135714500Y-111457750D01*
X121714500Y-111457750D02*
X121714500Y-113457750D01*
X121714500Y-113457750D02*
X123714500Y-113457750D01*
X123714500Y-99457750D02*
X121714500Y-99457750D01*
X121714500Y-99457750D02*
X121714500Y-101457750D01*
X119189500Y-96932750D02*
X138239500Y-96932750D01*
X138239500Y-96932750D02*
X138239500Y-115982750D01*
X138239500Y-115982750D02*
X119189500Y-115982750D01*
X119189500Y-115982750D02*
X119189500Y-96932750D01*
%TO.C,MX3*%
X119189500Y-77882750D02*
X119189500Y-58832750D01*
X138239500Y-77882750D02*
X119189500Y-77882750D01*
X138239500Y-58832750D02*
X138239500Y-77882750D01*
X119189500Y-58832750D02*
X138239500Y-58832750D01*
X121714500Y-61357750D02*
X121714500Y-63357750D01*
X123714500Y-61357750D02*
X121714500Y-61357750D01*
X121714500Y-75357750D02*
X123714500Y-75357750D01*
X121714500Y-73357750D02*
X121714500Y-75357750D01*
X135714500Y-75357750D02*
X135714500Y-73357750D01*
X133714500Y-75357750D02*
X135714500Y-75357750D01*
X135714500Y-61357750D02*
X135714500Y-63357750D01*
X133714500Y-61357750D02*
X135714500Y-61357750D01*
%TD*%
%TO.C,MX2*%
X84566285Y-148185130D02*
X84566285Y-147185130D01*
X84899619Y-147899416D01*
X85232952Y-147185130D01*
X85232952Y-148185130D01*
X85613904Y-147185130D02*
X86280571Y-148185130D01*
X86280571Y-147185130D02*
X85613904Y-148185130D01*
X86613904Y-147280369D02*
X86661523Y-147232750D01*
X86756761Y-147185130D01*
X86994857Y-147185130D01*
X87090095Y-147232750D01*
X87137714Y-147280369D01*
X87185333Y-147375607D01*
X87185333Y-147470845D01*
X87137714Y-147613702D01*
X86566285Y-148185130D01*
X87185333Y-148185130D01*
X83066285Y-137072630D02*
X83066285Y-136072630D01*
X83399619Y-136786916D01*
X83732952Y-136072630D01*
X83732952Y-137072630D01*
X84113904Y-136072630D02*
X84780571Y-137072630D01*
X84780571Y-136072630D02*
X84113904Y-137072630D01*
X85161523Y-136691678D02*
X85923428Y-136691678D01*
X86875809Y-137072630D02*
X86399619Y-137072630D01*
X86399619Y-136072630D01*
X87209142Y-136548821D02*
X87542476Y-136548821D01*
X87685333Y-137072630D02*
X87209142Y-137072630D01*
X87209142Y-136072630D01*
X87685333Y-136072630D01*
X88113904Y-137072630D02*
X88113904Y-136072630D01*
X88352000Y-136072630D01*
X88494857Y-136120250D01*
X88590095Y-136215488D01*
X88637714Y-136310726D01*
X88685333Y-136501202D01*
X88685333Y-136644059D01*
X88637714Y-136834535D01*
X88590095Y-136929773D01*
X88494857Y-137025011D01*
X88352000Y-137072630D01*
X88113904Y-137072630D01*
%TO.C,MX6*%
X146478785Y-71985130D02*
X146478785Y-70985130D01*
X146812119Y-71699416D01*
X147145452Y-70985130D01*
X147145452Y-71985130D01*
X147526404Y-70985130D02*
X148193071Y-71985130D01*
X148193071Y-70985130D02*
X147526404Y-71985130D01*
X149002595Y-70985130D02*
X148812119Y-70985130D01*
X148716880Y-71032750D01*
X148669261Y-71080369D01*
X148574023Y-71223226D01*
X148526404Y-71413702D01*
X148526404Y-71794654D01*
X148574023Y-71889892D01*
X148621642Y-71937511D01*
X148716880Y-71985130D01*
X148907357Y-71985130D01*
X149002595Y-71937511D01*
X149050214Y-71889892D01*
X149097833Y-71794654D01*
X149097833Y-71556559D01*
X149050214Y-71461321D01*
X149002595Y-71413702D01*
X148907357Y-71366083D01*
X148716880Y-71366083D01*
X148621642Y-71413702D01*
X148574023Y-71461321D01*
X148526404Y-71556559D01*
X144978785Y-60872630D02*
X144978785Y-59872630D01*
X145312119Y-60586916D01*
X145645452Y-59872630D01*
X145645452Y-60872630D01*
X146026404Y-59872630D02*
X146693071Y-60872630D01*
X146693071Y-59872630D02*
X146026404Y-60872630D01*
X147074023Y-60491678D02*
X147835928Y-60491678D01*
X148788309Y-60872630D02*
X148312119Y-60872630D01*
X148312119Y-59872630D01*
X149121642Y-60348821D02*
X149454976Y-60348821D01*
X149597833Y-60872630D02*
X149121642Y-60872630D01*
X149121642Y-59872630D01*
X149597833Y-59872630D01*
X150026404Y-60872630D02*
X150026404Y-59872630D01*
X150264500Y-59872630D01*
X150407357Y-59920250D01*
X150502595Y-60015488D01*
X150550214Y-60110726D01*
X150597833Y-60301202D01*
X150597833Y-60444059D01*
X150550214Y-60634535D01*
X150502595Y-60729773D01*
X150407357Y-60825011D01*
X150264500Y-60872630D01*
X150026404Y-60872630D01*
%TO.C,MX11*%
X165052595Y-110085130D02*
X165052595Y-109085130D01*
X165385928Y-109799416D01*
X165719261Y-109085130D01*
X165719261Y-110085130D01*
X166100214Y-109085130D02*
X166766880Y-110085130D01*
X166766880Y-109085130D02*
X166100214Y-110085130D01*
X167671642Y-110085130D02*
X167100214Y-110085130D01*
X167385928Y-110085130D02*
X167385928Y-109085130D01*
X167290690Y-109227988D01*
X167195452Y-109323226D01*
X167100214Y-109370845D01*
X168624023Y-110085130D02*
X168052595Y-110085130D01*
X168338309Y-110085130D02*
X168338309Y-109085130D01*
X168243071Y-109227988D01*
X168147833Y-109323226D01*
X168052595Y-109370845D01*
X164028785Y-98972630D02*
X164028785Y-97972630D01*
X164362119Y-98686916D01*
X164695452Y-97972630D01*
X164695452Y-98972630D01*
X165076404Y-97972630D02*
X165743071Y-98972630D01*
X165743071Y-97972630D02*
X165076404Y-98972630D01*
X166124023Y-98591678D02*
X166885928Y-98591678D01*
X167838309Y-98972630D02*
X167362119Y-98972630D01*
X167362119Y-97972630D01*
X168171642Y-98448821D02*
X168504976Y-98448821D01*
X168647833Y-98972630D02*
X168171642Y-98972630D01*
X168171642Y-97972630D01*
X168647833Y-97972630D01*
X169076404Y-98972630D02*
X169076404Y-97972630D01*
X169314500Y-97972630D01*
X169457357Y-98020250D01*
X169552595Y-98115488D01*
X169600214Y-98210726D01*
X169647833Y-98401202D01*
X169647833Y-98544059D01*
X169600214Y-98734535D01*
X169552595Y-98829773D01*
X169457357Y-98925011D01*
X169314500Y-98972630D01*
X169076404Y-98972630D01*
%TO.C,MX4*%
X127428785Y-91035130D02*
X127428785Y-90035130D01*
X127762119Y-90749416D01*
X128095452Y-90035130D01*
X128095452Y-91035130D01*
X128476404Y-90035130D02*
X129143071Y-91035130D01*
X129143071Y-90035130D02*
X128476404Y-91035130D01*
X129952595Y-90368464D02*
X129952595Y-91035130D01*
X129714500Y-89987511D02*
X129476404Y-90701797D01*
X130095452Y-90701797D01*
X125928785Y-79922630D02*
X125928785Y-78922630D01*
X126262119Y-79636916D01*
X126595452Y-78922630D01*
X126595452Y-79922630D01*
X126976404Y-78922630D02*
X127643071Y-79922630D01*
X127643071Y-78922630D02*
X126976404Y-79922630D01*
X128024023Y-79541678D02*
X128785928Y-79541678D01*
X129738309Y-79922630D02*
X129262119Y-79922630D01*
X129262119Y-78922630D01*
X130071642Y-79398821D02*
X130404976Y-79398821D01*
X130547833Y-79922630D02*
X130071642Y-79922630D01*
X130071642Y-78922630D01*
X130547833Y-78922630D01*
X130976404Y-79922630D02*
X130976404Y-78922630D01*
X131214500Y-78922630D01*
X131357357Y-78970250D01*
X131452595Y-79065488D01*
X131500214Y-79160726D01*
X131547833Y-79351202D01*
X131547833Y-79494059D01*
X131500214Y-79684535D01*
X131452595Y-79779773D01*
X131357357Y-79875011D01*
X131214500Y-79922630D01*
X130976404Y-79922630D01*
%TO.C,MX1*%
X84566285Y-129135130D02*
X84566285Y-128135130D01*
X84899619Y-128849416D01*
X85232952Y-128135130D01*
X85232952Y-129135130D01*
X85613904Y-128135130D02*
X86280571Y-129135130D01*
X86280571Y-128135130D02*
X85613904Y-129135130D01*
X87185333Y-129135130D02*
X86613904Y-129135130D01*
X86899619Y-129135130D02*
X86899619Y-128135130D01*
X86804380Y-128277988D01*
X86709142Y-128373226D01*
X86613904Y-128420845D01*
X83066285Y-118022630D02*
X83066285Y-117022630D01*
X83399619Y-117736916D01*
X83732952Y-117022630D01*
X83732952Y-118022630D01*
X84113904Y-117022630D02*
X84780571Y-118022630D01*
X84780571Y-117022630D02*
X84113904Y-118022630D01*
X85161523Y-117641678D02*
X85923428Y-117641678D01*
X86875809Y-118022630D02*
X86399619Y-118022630D01*
X86399619Y-117022630D01*
X87209142Y-117498821D02*
X87542476Y-117498821D01*
X87685333Y-118022630D02*
X87209142Y-118022630D01*
X87209142Y-117022630D01*
X87685333Y-117022630D01*
X88113904Y-118022630D02*
X88113904Y-117022630D01*
X88352000Y-117022630D01*
X88494857Y-117070250D01*
X88590095Y-117165488D01*
X88637714Y-117260726D01*
X88685333Y-117451202D01*
X88685333Y-117594059D01*
X88637714Y-117784535D01*
X88590095Y-117879773D01*
X88494857Y-117975011D01*
X88352000Y-118022630D01*
X88113904Y-118022630D01*
%TO.C,MX12*%
X203152595Y-119610130D02*
X203152595Y-118610130D01*
X203485928Y-119324416D01*
X203819261Y-118610130D01*
X203819261Y-119610130D01*
X204200214Y-118610130D02*
X204866880Y-119610130D01*
X204866880Y-118610130D02*
X204200214Y-119610130D01*
X205771642Y-119610130D02*
X205200214Y-119610130D01*
X205485928Y-119610130D02*
X205485928Y-118610130D01*
X205390690Y-118752988D01*
X205295452Y-118848226D01*
X205200214Y-118895845D01*
X206152595Y-118705369D02*
X206200214Y-118657750D01*
X206295452Y-118610130D01*
X206533547Y-118610130D01*
X206628785Y-118657750D01*
X206676404Y-118705369D01*
X206724023Y-118800607D01*
X206724023Y-118895845D01*
X206676404Y-119038702D01*
X206104976Y-119610130D01*
X206724023Y-119610130D01*
X202128785Y-108497630D02*
X202128785Y-107497630D01*
X202462119Y-108211916D01*
X202795452Y-107497630D01*
X202795452Y-108497630D01*
X203176404Y-107497630D02*
X203843071Y-108497630D01*
X203843071Y-107497630D02*
X203176404Y-108497630D01*
X204224023Y-108116678D02*
X204985928Y-108116678D01*
X205938309Y-108497630D02*
X205462119Y-108497630D01*
X205462119Y-107497630D01*
X206271642Y-107973821D02*
X206604976Y-107973821D01*
X206747833Y-108497630D02*
X206271642Y-108497630D01*
X206271642Y-107497630D01*
X206747833Y-107497630D01*
X207176404Y-108497630D02*
X207176404Y-107497630D01*
X207414500Y-107497630D01*
X207557357Y-107545250D01*
X207652595Y-107640488D01*
X207700214Y-107735726D01*
X207747833Y-107926202D01*
X207747833Y-108069059D01*
X207700214Y-108259535D01*
X207652595Y-108354773D01*
X207557357Y-108450011D01*
X207414500Y-108497630D01*
X207176404Y-108497630D01*
%TO.C,MX10*%
X165052595Y-91035130D02*
X165052595Y-90035130D01*
X165385928Y-90749416D01*
X165719261Y-90035130D01*
X165719261Y-91035130D01*
X166100214Y-90035130D02*
X166766880Y-91035130D01*
X166766880Y-90035130D02*
X166100214Y-91035130D01*
X167671642Y-91035130D02*
X167100214Y-91035130D01*
X167385928Y-91035130D02*
X167385928Y-90035130D01*
X167290690Y-90177988D01*
X167195452Y-90273226D01*
X167100214Y-90320845D01*
X168290690Y-90035130D02*
X168385928Y-90035130D01*
X168481166Y-90082750D01*
X168528785Y-90130369D01*
X168576404Y-90225607D01*
X168624023Y-90416083D01*
X168624023Y-90654178D01*
X168576404Y-90844654D01*
X168528785Y-90939892D01*
X168481166Y-90987511D01*
X168385928Y-91035130D01*
X168290690Y-91035130D01*
X168195452Y-90987511D01*
X168147833Y-90939892D01*
X168100214Y-90844654D01*
X168052595Y-90654178D01*
X168052595Y-90416083D01*
X168100214Y-90225607D01*
X168147833Y-90130369D01*
X168195452Y-90082750D01*
X168290690Y-90035130D01*
X164028785Y-79922630D02*
X164028785Y-78922630D01*
X164362119Y-79636916D01*
X164695452Y-78922630D01*
X164695452Y-79922630D01*
X165076404Y-78922630D02*
X165743071Y-79922630D01*
X165743071Y-78922630D02*
X165076404Y-79922630D01*
X166124023Y-79541678D02*
X166885928Y-79541678D01*
X167838309Y-79922630D02*
X167362119Y-79922630D01*
X167362119Y-78922630D01*
X168171642Y-79398821D02*
X168504976Y-79398821D01*
X168647833Y-79922630D02*
X168171642Y-79922630D01*
X168171642Y-78922630D01*
X168647833Y-78922630D01*
X169076404Y-79922630D02*
X169076404Y-78922630D01*
X169314500Y-78922630D01*
X169457357Y-78970250D01*
X169552595Y-79065488D01*
X169600214Y-79160726D01*
X169647833Y-79351202D01*
X169647833Y-79494059D01*
X169600214Y-79684535D01*
X169552595Y-79779773D01*
X169457357Y-79875011D01*
X169314500Y-79922630D01*
X169076404Y-79922630D01*
%TO.C,MX9*%
X165528785Y-71985130D02*
X165528785Y-70985130D01*
X165862119Y-71699416D01*
X166195452Y-70985130D01*
X166195452Y-71985130D01*
X166576404Y-70985130D02*
X167243071Y-71985130D01*
X167243071Y-70985130D02*
X166576404Y-71985130D01*
X167671642Y-71985130D02*
X167862119Y-71985130D01*
X167957357Y-71937511D01*
X168004976Y-71889892D01*
X168100214Y-71747035D01*
X168147833Y-71556559D01*
X168147833Y-71175607D01*
X168100214Y-71080369D01*
X168052595Y-71032750D01*
X167957357Y-70985130D01*
X167766880Y-70985130D01*
X167671642Y-71032750D01*
X167624023Y-71080369D01*
X167576404Y-71175607D01*
X167576404Y-71413702D01*
X167624023Y-71508940D01*
X167671642Y-71556559D01*
X167766880Y-71604178D01*
X167957357Y-71604178D01*
X168052595Y-71556559D01*
X168100214Y-71508940D01*
X168147833Y-71413702D01*
X164028785Y-60872630D02*
X164028785Y-59872630D01*
X164362119Y-60586916D01*
X164695452Y-59872630D01*
X164695452Y-60872630D01*
X165076404Y-59872630D02*
X165743071Y-60872630D01*
X165743071Y-59872630D02*
X165076404Y-60872630D01*
X166124023Y-60491678D02*
X166885928Y-60491678D01*
X167838309Y-60872630D02*
X167362119Y-60872630D01*
X167362119Y-59872630D01*
X168171642Y-60348821D02*
X168504976Y-60348821D01*
X168647833Y-60872630D02*
X168171642Y-60872630D01*
X168171642Y-59872630D01*
X168647833Y-59872630D01*
X169076404Y-60872630D02*
X169076404Y-59872630D01*
X169314500Y-59872630D01*
X169457357Y-59920250D01*
X169552595Y-60015488D01*
X169600214Y-60110726D01*
X169647833Y-60301202D01*
X169647833Y-60444059D01*
X169600214Y-60634535D01*
X169552595Y-60729773D01*
X169457357Y-60825011D01*
X169314500Y-60872630D01*
X169076404Y-60872630D01*
%TO.C,MX8*%
X146478785Y-110085130D02*
X146478785Y-109085130D01*
X146812119Y-109799416D01*
X147145452Y-109085130D01*
X147145452Y-110085130D01*
X147526404Y-109085130D02*
X148193071Y-110085130D01*
X148193071Y-109085130D02*
X147526404Y-110085130D01*
X148716880Y-109513702D02*
X148621642Y-109466083D01*
X148574023Y-109418464D01*
X148526404Y-109323226D01*
X148526404Y-109275607D01*
X148574023Y-109180369D01*
X148621642Y-109132750D01*
X148716880Y-109085130D01*
X148907357Y-109085130D01*
X149002595Y-109132750D01*
X149050214Y-109180369D01*
X149097833Y-109275607D01*
X149097833Y-109323226D01*
X149050214Y-109418464D01*
X149002595Y-109466083D01*
X148907357Y-109513702D01*
X148716880Y-109513702D01*
X148621642Y-109561321D01*
X148574023Y-109608940D01*
X148526404Y-109704178D01*
X148526404Y-109894654D01*
X148574023Y-109989892D01*
X148621642Y-110037511D01*
X148716880Y-110085130D01*
X148907357Y-110085130D01*
X149002595Y-110037511D01*
X149050214Y-109989892D01*
X149097833Y-109894654D01*
X149097833Y-109704178D01*
X149050214Y-109608940D01*
X149002595Y-109561321D01*
X148907357Y-109513702D01*
X144978785Y-98972630D02*
X144978785Y-97972630D01*
X145312119Y-98686916D01*
X145645452Y-97972630D01*
X145645452Y-98972630D01*
X146026404Y-97972630D02*
X146693071Y-98972630D01*
X146693071Y-97972630D02*
X146026404Y-98972630D01*
X147074023Y-98591678D02*
X147835928Y-98591678D01*
X148788309Y-98972630D02*
X148312119Y-98972630D01*
X148312119Y-97972630D01*
X149121642Y-98448821D02*
X149454976Y-98448821D01*
X149597833Y-98972630D02*
X149121642Y-98972630D01*
X149121642Y-97972630D01*
X149597833Y-97972630D01*
X150026404Y-98972630D02*
X150026404Y-97972630D01*
X150264500Y-97972630D01*
X150407357Y-98020250D01*
X150502595Y-98115488D01*
X150550214Y-98210726D01*
X150597833Y-98401202D01*
X150597833Y-98544059D01*
X150550214Y-98734535D01*
X150502595Y-98829773D01*
X150407357Y-98925011D01*
X150264500Y-98972630D01*
X150026404Y-98972630D01*
%TO.C,MX7*%
X146478785Y-91035130D02*
X146478785Y-90035130D01*
X146812119Y-90749416D01*
X147145452Y-90035130D01*
X147145452Y-91035130D01*
X147526404Y-90035130D02*
X148193071Y-91035130D01*
X148193071Y-90035130D02*
X147526404Y-91035130D01*
X148478785Y-90035130D02*
X149145452Y-90035130D01*
X148716880Y-91035130D01*
X144978785Y-79922630D02*
X144978785Y-78922630D01*
X145312119Y-79636916D01*
X145645452Y-78922630D01*
X145645452Y-79922630D01*
X146026404Y-78922630D02*
X146693071Y-79922630D01*
X146693071Y-78922630D02*
X146026404Y-79922630D01*
X147074023Y-79541678D02*
X147835928Y-79541678D01*
X148788309Y-79922630D02*
X148312119Y-79922630D01*
X148312119Y-78922630D01*
X149121642Y-79398821D02*
X149454976Y-79398821D01*
X149597833Y-79922630D02*
X149121642Y-79922630D01*
X149121642Y-78922630D01*
X149597833Y-78922630D01*
X150026404Y-79922630D02*
X150026404Y-78922630D01*
X150264500Y-78922630D01*
X150407357Y-78970250D01*
X150502595Y-79065488D01*
X150550214Y-79160726D01*
X150597833Y-79351202D01*
X150597833Y-79494059D01*
X150550214Y-79684535D01*
X150502595Y-79779773D01*
X150407357Y-79875011D01*
X150264500Y-79922630D01*
X150026404Y-79922630D01*
%TO.C,MX5*%
X127428785Y-110085130D02*
X127428785Y-109085130D01*
X127762119Y-109799416D01*
X128095452Y-109085130D01*
X128095452Y-110085130D01*
X128476404Y-109085130D02*
X129143071Y-110085130D01*
X129143071Y-109085130D02*
X128476404Y-110085130D01*
X130000214Y-109085130D02*
X129524023Y-109085130D01*
X129476404Y-109561321D01*
X129524023Y-109513702D01*
X129619261Y-109466083D01*
X129857357Y-109466083D01*
X129952595Y-109513702D01*
X130000214Y-109561321D01*
X130047833Y-109656559D01*
X130047833Y-109894654D01*
X130000214Y-109989892D01*
X129952595Y-110037511D01*
X129857357Y-110085130D01*
X129619261Y-110085130D01*
X129524023Y-110037511D01*
X129476404Y-109989892D01*
X125928785Y-98972630D02*
X125928785Y-97972630D01*
X126262119Y-98686916D01*
X126595452Y-97972630D01*
X126595452Y-98972630D01*
X126976404Y-97972630D02*
X127643071Y-98972630D01*
X127643071Y-97972630D02*
X126976404Y-98972630D01*
X128024023Y-98591678D02*
X128785928Y-98591678D01*
X129738309Y-98972630D02*
X129262119Y-98972630D01*
X129262119Y-97972630D01*
X130071642Y-98448821D02*
X130404976Y-98448821D01*
X130547833Y-98972630D02*
X130071642Y-98972630D01*
X130071642Y-97972630D01*
X130547833Y-97972630D01*
X130976404Y-98972630D02*
X130976404Y-97972630D01*
X131214500Y-97972630D01*
X131357357Y-98020250D01*
X131452595Y-98115488D01*
X131500214Y-98210726D01*
X131547833Y-98401202D01*
X131547833Y-98544059D01*
X131500214Y-98734535D01*
X131452595Y-98829773D01*
X131357357Y-98925011D01*
X131214500Y-98972630D01*
X130976404Y-98972630D01*
%TO.C,MX3*%
X127428785Y-71985130D02*
X127428785Y-70985130D01*
X127762119Y-71699416D01*
X128095452Y-70985130D01*
X128095452Y-71985130D01*
X128476404Y-70985130D02*
X129143071Y-71985130D01*
X129143071Y-70985130D02*
X128476404Y-71985130D01*
X129428785Y-70985130D02*
X130047833Y-70985130D01*
X129714500Y-71366083D01*
X129857357Y-71366083D01*
X129952595Y-71413702D01*
X130000214Y-71461321D01*
X130047833Y-71556559D01*
X130047833Y-71794654D01*
X130000214Y-71889892D01*
X129952595Y-71937511D01*
X129857357Y-71985130D01*
X129571642Y-71985130D01*
X129476404Y-71937511D01*
X129428785Y-71889892D01*
X125928785Y-60872630D02*
X125928785Y-59872630D01*
X126262119Y-60586916D01*
X126595452Y-59872630D01*
X126595452Y-60872630D01*
X126976404Y-59872630D02*
X127643071Y-60872630D01*
X127643071Y-59872630D02*
X126976404Y-60872630D01*
X128024023Y-60491678D02*
X128785928Y-60491678D01*
X129738309Y-60872630D02*
X129262119Y-60872630D01*
X129262119Y-59872630D01*
X130071642Y-60348821D02*
X130404976Y-60348821D01*
X130547833Y-60872630D02*
X130071642Y-60872630D01*
X130071642Y-59872630D01*
X130547833Y-59872630D01*
X130976404Y-60872630D02*
X130976404Y-59872630D01*
X131214500Y-59872630D01*
X131357357Y-59920250D01*
X131452595Y-60015488D01*
X131500214Y-60110726D01*
X131547833Y-60301202D01*
X131547833Y-60444059D01*
X131500214Y-60634535D01*
X131452595Y-60729773D01*
X131357357Y-60825011D01*
X131214500Y-60872630D01*
X130976404Y-60872630D01*
%TD*%
M02*
