%TF.GenerationSoftware,KiCad,Pcbnew,(5.1.9-0-10_14)*%
%TF.CreationDate,2021-04-13T19:55:37+09:00*%
%TF.ProjectId,IKIDS,494b4944-532e-46b6-9963-61645f706362,rev?*%
%TF.SameCoordinates,Original*%
%TF.FileFunction,Soldermask,Top*%
%TF.FilePolarity,Negative*%
%FSLAX46Y46*%
G04 Gerber Fmt 4.6, Leading zero omitted, Abs format (unit mm)*
G04 Created by KiCad (PCBNEW (5.1.9-0-10_14)) date 2021-04-13 19:55:37*
%MOMM*%
%LPD*%
G01*
G04 APERTURE LIST*
%ADD10C,1.750000*%
%ADD11C,3.987800*%
%ADD12C,1.752600*%
%ADD13R,1.752600X1.752600*%
G04 APERTURE END LIST*
D10*
%TO.C,MX2*%
X90932000Y-144557750D03*
X80772000Y-144557750D03*
D11*
X85852000Y-144557750D03*
%TD*%
D10*
%TO.C,MX6*%
X152844500Y-68357750D03*
X142684500Y-68357750D03*
D11*
X147764500Y-68357750D03*
%TD*%
D10*
%TO.C,MX11*%
X171894500Y-106457750D03*
X161734500Y-106457750D03*
D11*
X166814500Y-106457750D03*
%TD*%
D10*
%TO.C,MX4*%
X133794500Y-87407750D03*
X123634500Y-87407750D03*
D11*
X128714500Y-87407750D03*
%TD*%
D10*
%TO.C,MX1*%
X90932000Y-125507750D03*
X80772000Y-125507750D03*
D11*
X85852000Y-125507750D03*
%TD*%
D12*
%TO.C,U1*%
X194468750Y-90678000D03*
X191928750Y-90678000D03*
X189388750Y-90678000D03*
X186848750Y-90678000D03*
X184308750Y-90678000D03*
X181768750Y-62738000D03*
X196780150Y-90678000D03*
X181768750Y-65278000D03*
X181768750Y-67818000D03*
X181768750Y-70358000D03*
X181768750Y-72898000D03*
X181768750Y-75438000D03*
X181768750Y-77978000D03*
X181768750Y-80518000D03*
X181768750Y-83058000D03*
X181768750Y-85598000D03*
X181768750Y-88138000D03*
X181768750Y-90678000D03*
X197008750Y-88138000D03*
X197008750Y-85598000D03*
X197008750Y-83058000D03*
X197008750Y-80518000D03*
X197008750Y-77978000D03*
X197008750Y-75438000D03*
X197008750Y-72898000D03*
X197008750Y-70358000D03*
X197008750Y-67818000D03*
X197008750Y-65278000D03*
D13*
X197008750Y-62738000D03*
%TD*%
D10*
%TO.C,MX12*%
X209994500Y-115982750D03*
X199834500Y-115982750D03*
D11*
X204914500Y-115982750D03*
%TD*%
D10*
%TO.C,MX10*%
X171894500Y-87407750D03*
X161734500Y-87407750D03*
D11*
X166814500Y-87407750D03*
%TD*%
D10*
%TO.C,MX9*%
X171894500Y-68357750D03*
X161734500Y-68357750D03*
D11*
X166814500Y-68357750D03*
%TD*%
D10*
%TO.C,MX8*%
X152844500Y-106457750D03*
X142684500Y-106457750D03*
D11*
X147764500Y-106457750D03*
%TD*%
D10*
%TO.C,MX7*%
X152844500Y-87407750D03*
X142684500Y-87407750D03*
D11*
X147764500Y-87407750D03*
%TD*%
%TO.C,MX5*%
X128714500Y-106457750D03*
D10*
X123634500Y-106457750D03*
X133794500Y-106457750D03*
%TD*%
%TO.C,MX3*%
X133794500Y-68357750D03*
X123634500Y-68357750D03*
D11*
X128714500Y-68357750D03*
%TD*%
M02*
